<svg width="135" height="165" viewBox="0 0 135 165" fill="none" xmlns="http://www.w3.org/2000/svg">
<path fill-rule="evenodd" clip-rule="evenodd" d="M8.71267 103.263C12.7398 101.849 16.5132 100.078 17.0968 99.329C17.6813 98.5787 15.0963 99.2918 11.3508 100.914C7.60708 102.536 4.7328 103.297 4.96342 102.605C5.19404 101.914 7.13524 100.591 9.27672 99.6671C13.8797 97.6821 14.6938 96.8858 12.4331 96.5804C11.3159 96.4301 11.5268 95.8573 13.0775 94.832C14.3451 93.9938 15.1369 93.1177 14.8368 92.8839C14.2325 92.4132 8.51439 96.4936 3.06555 101.283C-1.84736 105.602 0.102422 106.285 8.71267 103.263ZM23.9745 107.091C25.5928 106.292 29.5981 103.409 32.8767 100.684C38.0407 96.3939 39.0723 94.9674 40.5841 90.0313C42.2469 84.6037 42.549 84.2519 46.9022 82.6642C52.8896 80.4801 54.2704 82.883 50.7641 89.3842C49.2446 92.2029 48.7488 93.9031 49.6637 93.1603C50.5778 92.4185 52.1232 89.7963 53.0982 87.3341C54.9816 82.5719 56.8561 81.246 56.6001 84.8569C56.5156 86.0544 56.7669 86.6358 57.1592 86.1512C57.5513 85.6649 57.7432 84.0232 57.5862 82.5017C57.3304 80.0414 57.93 79.5652 63.0162 78.1893C67.498 76.9766 68.4682 77.0733 67.5054 78.6391C66.8287 79.7377 63.9324 84.256 61.067 88.6813C58.2018 93.1066 56.2364 97.0211 56.6994 97.3817C59.6621 99.6893 71.5753 86.7533 72.6556 80.0569C73.2741 76.2146 73.6088 75.8849 78.0114 74.7761L82.7063 73.592L78.2459 81.2098C73.6932 88.9821 73.4929 91.3622 77.646 88.321C81.2213 85.7027 83.5534 82.3237 84.9474 77.7409C86.0727 74.0435 86.7379 73.4341 90.7336 72.4393C96.9108 70.9028 97.6059 69.5063 91.5439 70.814C87.0368 71.7868 86.2681 71.5207 81.439 67.3252C76.9423 63.4198 76.6308 63.288 79.2066 66.3859L82.2011 69.9863L78.9182 67.8197L75.6353 65.653L78.1513 68.8042C80.4458 71.6783 80.2522 71.6462 75.9489 68.4412C72.6615 65.9931 71.9048 65.0118 73.4531 65.2042C75.3569 65.4425 75.4924 65.192 74.3998 63.4571C72.9344 61.1289 69.4872 59.7197 68.4667 61.0299C67.5553 62.2001 70.5435 65.9534 75.4444 69.7972C80.592 73.8348 78.2218 75.6973 72.6259 72.0118C70.4134 70.5555 68.3076 69.743 67.9472 70.2056C67.5861 70.6692 66.5649 70.7827 65.6786 70.4593C64.7912 70.1351 65.2625 70.5318 66.7247 71.3412C71.3805 73.915 70.6811 75.5191 64.3095 76.8776C59.9133 77.8165 57.3352 77.5825 55.3707 76.0695C53.8521 74.9007 51.5559 73.8603 50.2676 73.7594C48.4613 73.6174 48.6225 73.8975 50.9718 74.9825L54.0185 76.3889L50.456 76.4297C48.4953 76.4517 45.58 76.3656 43.9774 76.2386C42.373 76.1117 43.5282 76.4836 46.5437 77.0663C49.5593 77.649 52.1962 78.2583 52.4045 78.4205C53.0542 78.9266 44.7664 82.4857 41.7433 82.9997C40.1591 83.2681 37.4122 82.3872 35.6412 81.0405L32.42 78.5925L34.6377 82.4671C35.8577 84.5978 36.455 87.3195 35.9647 88.5149C35.203 90.3734 35.4574 90.434 37.7237 88.9325C40.19 87.2977 40.3268 87.3496 39.6862 89.6802C38.5257 93.9014 34.9001 97.9203 29.4147 101.064L24.1783 104.064L28.8867 96.8002L33.5941 89.5355L26.8331 97.8412C19.85 106.417 18.8617 109.616 23.9745 107.091ZM48.1397 118.433C56.3152 117.307 66.4262 112.783 72.2148 107.661C77.1728 103.276 78.1066 102.85 77.9026 105.071C76.4495 120.818 76.0961 135.786 77.178 135.683C77.9184 135.614 77.7718 136.004 76.8517 136.549C75.1302 137.572 74.2062 141.969 75.7441 141.823C76.801 141.724 83.2379 128.325 84.7185 123.139C86.6105 116.518 85.6713 104.475 82.9605 100.574L80.4031 96.8976L87.7498 86.7166L95.0958 76.5366L86.287 87.8119C78.3279 97.9984 77.0139 99.2111 72.6735 100.376C70.0314 101.084 63.5049 104.13 58.1718 107.144C42.4456 116.033 39.2197 119.662 48.1397 118.433ZM106.863 161.83C107.628 160.063 109.099 157.52 110.134 156.179C111.811 154.006 111.765 153.883 109.71 155.043C107.713 156.171 107.613 155.727 108.955 151.744C109.807 149.213 110.23 146.458 109.896 145.623C109.56 144.789 109.235 144.736 109.172 145.509C108.958 148.121 105.416 160.312 104.97 159.965C104.727 159.775 104.744 156.801 105.006 153.356C105.269 149.911 105.164 148.018 104.773 149.152C103.48 152.9 103.177 163.253 104.335 164.155C105.058 164.719 105.982 163.869 106.863 161.83ZM22.5713 94.2235C24.58 91.7701 28.0273 89.2566 30.6221 88.3544C36.9143 86.1641 36.7964 85.8943 29.3335 85.4268C23.0009 85.0293 18.4202 83.2462 21.2511 82.2812C22.0561 82.0071 21.7303 81.5192 20.4666 81.108C18.857 80.5836 18.4834 80.8485 19.0013 82.1405C19.4169 83.1747 18.6143 82.9352 17.0188 81.5504L14.3397 79.2232L18.2524 79.1476C20.4041 79.1058 24.3379 79.1371 26.9928 79.2171C29.6477 79.2971 30.7284 79.1051 29.3919 78.7917C26.2083 78.0439 9.07113 77.9616 8.3993 78.6923C7.6177 79.5405 23.8643 86.4436 26.139 86.2289C30.0267 85.8621 29.8155 87.4606 25.8301 88.5634C18.3178 90.6419 16.1976 91.8622 17.8547 93.1529C18.6746 93.7915 19.7617 93.8763 20.2696 93.3412C20.7776 92.8061 20.7122 93.7514 20.125 95.4413C19.2371 97.9979 19.6483 97.7934 22.5713 94.2235ZM49.7329 114.681C48.9787 114.58 48.4744 114.351 48.6129 114.173C49.5085 113.023 67.3483 103.412 70.2773 102.5C74.9031 101.062 76.4824 102.278 72.7782 104.426C71.203 105.34 69.6796 106.924 69.391 107.945C69.1025 108.966 64.6555 111.585 59.5091 113.763C54.3619 115.943 50.3649 117.082 50.6273 116.296C50.8894 115.509 50.487 114.783 49.7329 114.681ZM40.1826 108.558C42.7459 108.315 45.7647 102.863 45.2347 99.4315C44.6978 95.9558 44.6853 95.957 42.9117 99.5742C39.5801 106.366 38.8771 108.681 40.1826 108.558ZM60.1494 111.701C64.6655 109.647 68.5856 107.628 68.8621 107.216C69.1385 106.804 65.3996 108.192 60.5519 110.302C55.705 112.411 51.7849 114.429 51.8393 114.787C51.8954 115.145 55.6344 113.756 60.1494 111.701ZM77.9952 120.606C78.5183 113.497 79.2217 106.14 79.5594 104.256L80.1743 100.831L80.9175 105.314C81.3265 107.78 81.2863 113.681 80.8302 118.427C80.3722 123.174 80.4596 126.465 81.0229 125.742C82.2326 124.189 83.2108 111.287 82.3732 107.937C82.0523 106.658 82.1428 105.16 82.5721 104.608C83.7932 103.041 84.9049 110.109 84.4581 116.596C84.2362 119.823 82.961 124.1 81.6234 126.1C80.2866 128.1 78.9309 130.763 78.611 132.016C77.3218 137.067 77.0947 132.859 77.9952 120.606ZM97.3593 140.709C102.575 139.873 103.705 139.129 107.411 134.093L111.586 128.421L106.621 133.492C103.624 136.553 100.406 138.681 98.5036 138.861C95.4939 139.145 95.4955 139.026 98.5496 136.205C100.864 134.067 101.077 133.592 99.3216 134.484L96.8959 135.718L97.8748 133.357C98.4126 132.058 97.0119 133.25 94.7596 136.006C92.5073 138.761 90.8491 141.158 91.0739 141.333C91.2987 141.508 94.1273 141.227 97.3593 140.709ZM52.0081 96.8509C54.3342 93.9389 56.2969 90.6938 56.3701 89.6405C56.4443 88.5708 54.7527 90.3577 52.5416 93.6857C47.1403 101.814 46.8989 103.247 52.0081 96.8509ZM27.3866 83.053C30.4398 83.0982 30.4411 83.071 27.42 82.3529C25.6892 81.9417 24.1156 81.8092 23.9226 82.057C23.3434 82.8006 24.0459 83.0026 27.3866 83.053ZM109.026 141.35C111.564 139.523 111.577 139.53 112.481 143.227C112.982 145.267 113.12 144.282 112.788 141.036C112.127 134.557 113.233 125.8 114.58 126.849C115.048 127.213 115.559 128.338 115.715 129.346C115.91 130.608 116.36 130.717 117.16 129.69C117.798 128.871 117.702 127.719 116.945 127.129C114.654 125.345 116.796 124.146 119.637 125.623C121.097 126.382 120.499 125.795 118.309 124.319C115.178 122.208 114.194 120.629 113.704 116.936C112.907 110.92 114.01 109.595 117.942 111.846C120.476 113.297 120.358 113.032 117.339 110.493C112.083 106.071 114.111 104.621 119.586 108.886C124.816 112.959 129.2 118.91 129.774 122.713C130.132 125.09 130.034 125.173 128.887 123.471C128.178 122.417 126.016 119.929 124.082 117.94L120.566 114.326L123.578 118.628C125.235 120.993 125.984 122.984 125.241 123.05C124.5 123.118 125.611 124.509 127.711 126.145C131.143 128.819 131.568 128.85 131.919 126.451C132.133 124.984 130.933 121.146 129.25 117.923C126.739 113.112 124.951 111.239 119.264 107.462C112.721 103.116 112.3 102.583 111.671 97.8466L111.006 92.8331L118.806 98.6385L126.606 104.445L120.364 98.632C116.107 94.668 115.082 93.278 117.141 94.2606C119.647 95.4551 119.582 95.2919 116.764 93.2984C113.092 90.7021 114.023 89.5407 118.639 90.9594C120.644 91.5762 121.022 91.4334 119.893 90.4836C119.003 89.7373 116.284 89.077 113.853 89.0192C109.432 88.9149 109.43 88.9133 108.883 85.3683C108.335 81.8233 108.337 81.8232 113.191 84.553C115.862 86.0542 117.986 86.8823 117.91 86.3923C117.835 85.9032 115.54 84.4151 112.809 83.086C108.194 80.8389 106.881 78.5269 110.796 79.5407C111.743 79.7854 111.285 79.418 109.776 78.722C108.267 78.026 107.219 77.219 107.446 76.9274C108.429 75.6658 115.751 77.4496 120.937 80.2129L126.572 83.2166L121.398 79.7174C118.104 77.4906 114.001 75.9865 110.113 75.5799C101.292 74.6589 98.7469 71.179 102.804 65.5849L105.803 61.4523L101.297 65.7505C96.5846 70.2474 94.5009 73.7309 95.8818 74.8064C96.3293 75.155 97.1723 74.2875 97.7537 72.8774C98.6075 70.8049 99.0568 70.7066 100.101 72.3632C100.81 73.4904 101.7 74.6564 102.078 74.9539C102.455 75.2507 99.8979 79.265 96.397 83.8745C89.0766 93.5091 88.3473 97.6384 94.7431 93.241C97.0114 91.6816 100.039 88.5072 101.471 86.1874C103.73 82.5307 103.498 82.6607 99.7234 87.1682C94.3185 93.6224 93.818 90.2531 99.1553 83.3496C102.493 79.0346 102.793 78.9244 105.129 81.1677C106.482 82.4664 107.841 85.1505 108.146 87.1326C108.669 90.5097 108.489 90.7942 105.272 91.6848C103.384 92.207 101.191 93.5539 100.397 94.6779C99.4914 95.962 100.351 95.7791 102.715 94.1828C108.038 90.5882 106.033 94.4739 98.7516 101.862C94.5637 106.111 93.1869 106.994 93.6869 105.11L94.3729 102.521L92.8888 104.488C92.0725 105.57 90.8836 107.781 90.2477 109.402C89.105 112.311 89.1562 112.326 94.3345 110.56C98.8182 109.03 100.28 107.748 104.436 101.698C107.108 97.8062 109.577 94.8428 109.922 95.1119C110.268 95.381 110.783 97.5098 111.069 99.8422C111.46 103.025 110.905 104.639 108.847 106.309C100.692 112.924 101.024 112.6 103.689 111.338L106.183 110.158L104.863 112.253C103.924 113.744 104.427 113.684 106.602 112.046C108.991 110.246 108.601 111.159 104.817 116.214C101.66 120.431 98.9501 122.94 97.0306 123.422C93.5331 124.3 93.712 122.816 97.9029 116.201C99.8532 113.123 99.3123 113.526 95.8526 117.728C89.7327 125.162 89.4298 127.975 94.9324 126.265C97.78 125.378 100.894 122.794 105.332 117.634L111.664 110.267L112.556 115.327C113.048 118.11 112.86 121.007 112.14 121.767C111.419 122.525 110.075 124.226 109.152 125.544C107.781 127.506 107.908 127.942 109.848 127.938C112.846 127.933 112.455 132.434 108.903 138.824C106.773 142.655 106.788 142.96 109.026 141.35ZM47.1264 92.2678C48.3549 90.648 48.5433 89.9296 47.5448 90.6713C46.5463 91.413 45.5417 92.7387 45.3118 93.6168C45.0818 94.4949 45.8979 93.8875 47.1264 92.2678ZM126.562 150.235C126.978 149.701 126.869 148.913 126.32 148.485C125.771 148.058 126.016 147.307 126.866 146.818C127.716 146.329 128.04 144.685 127.59 143.163C126.889 140.801 126.802 140.742 126.997 142.763C127.431 147.271 126.051 146.603 124.217 141.419C123.204 138.557 121.468 135.918 120.361 135.557C118.83 135.059 118.514 135.321 119.045 136.646C119.431 137.606 120.642 138.683 121.735 139.039C122.947 139.434 123.14 139.885 122.23 140.196C121.397 140.48 121.657 142.878 122.813 145.601C125.178 151.17 125.512 151.584 126.562 150.235ZM105.226 130.494C106.267 129.158 106.459 128.428 105.653 128.874C104.846 129.319 103.994 130.412 103.76 131.304C103.526 132.194 104.185 131.83 105.226 130.494ZM50.2971 86.1486C51.338 84.8122 51.5301 84.0826 50.7236 84.5288C49.9168 84.9733 49.0652 86.0667 48.831 86.9587C48.5966 87.8489 49.2561 87.485 50.2971 86.1486ZM39.3015 78.2151C42.1632 79.1932 45.3526 79.8847 46.3896 79.7508C47.5894 79.5953 47.0838 79.2531 45.0005 78.8094C43.1985 78.4256 41.3154 77.493 40.8158 76.7368C40.3162 75.9807 38.0988 74.9625 35.8879 74.4741C29.5954 73.0849 30.9178 71.7445 37.8644 72.4704C41.313 72.8312 44.2782 72.9404 44.4546 72.714C44.9345 72.0978 37.3068 71.0741 31.7041 71.003L26.7821 70.9406L30.4407 73.6886C32.453 75.1998 36.4406 77.236 39.3015 78.2151ZM98.8969 119.318C100.354 117.447 100.738 116.517 99.7504 117.25C98.7623 117.983 97.5692 119.514 97.1008 120.652C96.6314 121.788 97.4396 121.189 98.8969 119.318ZM62.5277 90.9902C63.1887 90.7648 63.4711 89.9385 63.1565 89.1533C62.5197 87.5672 66.6078 81.8081 69.5903 80.0913C72.9909 78.1333 71.5945 82.4722 66.8533 88.5955C64.0736 92.1834 62.2616 93.7312 61.8988 92.8271C61.5843 92.0418 61.8667 91.2155 62.5277 90.9902ZM127.964 139.005C128.102 137.311 125.891 131.952 125.343 132.655C125.168 132.88 125.657 134.763 126.429 136.841C127.201 138.919 127.893 139.893 127.964 139.005ZM120.613 132.915C120.43 131.705 119.83 130.759 119.281 130.811C118.73 130.863 118.879 131.852 119.611 133.01C120.67 134.681 120.875 134.663 120.613 132.915ZM66.4313 86.8739C67.2638 85.703 67.1988 85.2824 66.2665 85.8008C65.4219 86.2704 64.8057 87.1381 64.8967 87.7274C64.9877 88.3168 65.6778 87.9329 66.4313 86.8739ZM101.239 101.622L105.233 98.4865L102.181 102.619C100.502 104.892 98.1613 107.284 96.9782 107.935C94.9642 109.045 94.9037 108.982 96.036 106.939C96.7017 105.74 99.0427 103.347 101.239 101.622ZM96.2975 99.3349C97.526 97.7152 97.7144 96.9968 96.7159 97.7385C95.7174 98.4802 94.7129 99.8059 94.4829 100.684C94.253 101.562 95.069 100.955 96.2975 99.3349ZM120.548 117.938C120.023 117.078 119.106 116.42 118.512 116.476C117.919 116.532 118.349 117.235 119.468 118.04C120.706 118.929 121.13 118.889 120.548 117.938ZM60.5731 71.1643C59.3422 69.8198 58.2126 68.0218 58.0633 67.1669C57.91 66.2917 58.7154 66.6488 59.9092 67.9878C61.7713 70.0769 61.8584 70.0651 60.6395 67.8883C59.3774 65.6373 52.1574 62.8245 51.1051 64.1755C50.9075 64.4292 53.4602 66.6548 56.7788 69.1225C60.0973 71.5901 61.804 72.5088 60.5731 71.1643ZM27.772 40.9997C34.8944 39.8558 40.832 36.9443 43.8144 33.1302C44.9833 31.6358 48.1252 30.0526 50.8521 29.5828C54.1146 29.021 55.0856 29.1933 53.7263 30.0896C52.5966 30.8338 51.2783 32.6178 50.7971 34.0544C49.9531 36.5718 50.0163 36.5992 52.5606 34.8174C54.625 33.3709 54.464 33.9264 51.823 37.3661C49.8427 39.9447 48.6974 40.8344 49.0538 39.5176C49.5617 37.638 49.0749 37.5696 46.0702 39.0958C44.095 40.098 41.6879 42.2568 40.7207 43.8942C39.0109 46.785 39.1248 46.8003 44.7722 44.4295C49.8462 42.2992 51.1787 41.065 55.2931 34.6893C59.7427 27.7939 60.2746 27.3555 64.8608 26.8237L69.7178 26.2611L69.2992 29.4767C68.9487 32.1708 69.1096 32.4131 70.2874 30.9647C71.0602 30.0129 71.9466 29.8662 72.2563 30.6385C72.9691 32.4164 73.6602 31.5461 74.1406 28.2661C74.4199 26.3568 75.5026 25.4901 78.3931 24.8635C80.5261 24.4011 82.2103 23.6235 82.1352 23.1371C81.861 21.3619 85.5071 25.4574 86.8315 28.4113C88.3531 31.8077 88.9095 31.604 89.5199 27.4274C89.8677 25.0515 90.7856 24.4749 94.9955 23.9859C101.426 23.2404 101.915 23.6932 98.6858 27.4099C97.0552 29.2865 96.9229 29.6861 98.3355 28.4596C101.025 26.1275 105.149 25.4934 105.533 27.3527C105.683 28.0717 106.134 27.5788 106.538 26.2566C107.031 24.6414 108.601 23.6846 111.318 23.3427C115.397 22.8282 119.775 24.9365 118.373 26.7375C117.956 27.2721 118.068 28.062 118.621 28.4926C119.253 28.9849 119.949 28.1512 120.493 26.2448C121.22 23.7007 121.894 23.3542 124.698 24.0892C127.608 24.8503 127.862 25.2244 126.67 26.9866C125.917 28.1005 125.076 29.5386 124.801 30.1832C124.526 30.8278 122.657 33.5878 120.646 36.3161C118.635 39.0443 117.337 41.5468 117.763 41.8786C118.189 42.2103 120.859 39.02 123.699 34.7898C126.538 30.5597 129.224 27.3814 129.667 27.7268C132.318 29.7919 135.26 36.9688 134.084 38.5052C133.306 39.5242 133.387 40.0937 134.276 39.854C136.543 39.2439 138.797 41.5077 137.975 43.5673C137.341 45.1552 137.266 45.0966 137.303 43.0436C137.38 38.7607 136.338 41.9207 135.603 48.1972C134.662 56.2385 133.471 57.7223 133.018 51.4182C132.822 48.6892 132.463 47.7065 132.22 49.2351C131.976 50.7628 131.92 54.2324 132.094 56.9446L132.409 61.8748L135.453 57.9765C137.128 55.8329 138.834 51.7664 139.247 48.9395C139.792 45.1932 140.435 43.9358 141.619 44.2978C142.533 44.5771 142.48 44.1453 141.499 43.3121C139.184 41.345 140.736 39.4715 143.134 41.3389C144.16 42.1381 146.4 42.8507 148.112 42.9242C151.737 43.0774 150.879 41.9372 146.758 41.1248C145.201 40.8188 143.167 39.5005 142.238 38.196C140.695 36.0255 141.046 35.896 146.391 36.6677C149.719 37.147 153.768 38.7407 155.802 40.3705C158.975 42.9132 158.473 42.8804 151.302 40.0855C146.864 38.3557 143.289 37.3079 143.359 37.7588C143.428 38.2079 145.101 39.1082 147.076 39.7576C149.052 40.4078 150.921 41.5704 151.232 42.3434C151.856 43.8992 161.28 46.1015 162.208 44.9099C162.529 44.4969 160.682 42.5144 158.101 40.5039C153.14 36.6397 146.933 34.7237 140.422 35.048C136.714 35.2331 136.294 34.9638 133.24 30.4423L129.996 25.6408L138.726 13.8308C143.641 7.1806 148.207 1.94996 149.176 1.85852C151.247 1.66313 152.737 6.4294 153.526 15.7744C154.06 22.0968 153.212 21.8501 151.438 15.1664C150.651 12.2032 150.608 12.1883 150.682 14.918C150.754 17.5604 153.479 24.4111 154.898 25.5164C155.221 25.7678 155.879 23.6138 156.362 20.7307C157.366 14.7214 154.962 0.580603 152.626 -1.23867C151.466 -2.14229 151.948 -3.70334 154.472 -7.21846L157.888 -11.975L154.095 -7.90247C151.119 -4.70767 149.089 -3.7641 144.677 -3.52611C141.583 -3.35936 140.146 -3.14184 141.483 -3.04376C147.023 -2.6354 147.184 -2.37141 143.428 0.134292C141.418 1.47659 139.528 2.25923 139.228 1.87419C138.928 1.48914 136.552 1.44672 133.948 1.78073C131.343 2.11473 129.766 2.82909 130.442 3.36778C131.219 3.98875 130.864 4.24825 129.477 4.0748C126.796 3.74059 125.813 1.7631 127.869 0.842408C128.696 0.471687 127.98 0.449147 126.279 0.790632C120.608 1.9317 120.86 3.40188 126.944 4.67212C131.588 5.64137 137.366 4.91174 142.633 2.69023C146.398 1.10314 146.229 1.44144 137.865 12.2497L129.193 23.4536L124.709 22.6871C121.251 22.0957 119.936 21.3102 118.965 19.2578C118.271 17.7932 117.237 16.6382 116.666 16.693C116.094 16.747 116.168 17.2127 116.83 17.7276C117.492 18.2433 117.692 19.1023 117.276 19.6369C116.86 20.1714 115.099 19.5028 113.364 18.1518C111.524 16.7181 110.791 15.4959 111.604 15.2192C113.211 14.6704 111.349 13.1451 107.625 11.9603C103.76 10.7301 105.612 14.1952 111.108 18.4763L115.628 21.9968L111.139 21.9197C107.698 21.8598 105.607 20.9189 102.176 17.8837C98.2074 14.3743 98.0488 14.3226 100.769 17.4311C103.515 20.5679 103.544 20.8893 101.052 20.4878C99.5198 20.2406 97.4214 19.1059 96.3882 17.9669C94.5774 15.9694 94.5597 15.9836 95.8946 18.371C96.6557 19.7337 97.7746 20.9284 98.3807 21.0288C100.837 21.4319 98.163 22.574 94.2482 22.7948C91.9476 22.9236 88.1578 22.0204 85.8253 20.7862C83.4939 19.5527 81.5341 19.1695 81.4713 19.9372C81.4065 20.7394 79.4969 19.8344 76.9676 17.8019C73.8726 15.3132 73.3344 14.513 75.1453 15.0896C78.9235 16.2928 77.1952 13.232 72.8254 10.9824C70.8062 9.94375 68.9003 9.42114 68.5877 9.82256C67.842 10.7799 72.4545 15.9576 77.6745 20.0235C81.7654 23.2098 81.778 23.2681 78.4497 23.7505C76.0912 24.0919 73.6055 23.163 70.2308 20.6781C65.4269 17.1394 65.4151 17.1396 68.4445 20.6423C70.8863 23.4655 70.9593 23.7972 68.8065 22.3046C66.8535 20.949 66.3232 20.9684 66.8694 22.373C67.5044 24.006 67.3386 24.219 65.805 23.7396C64.3218 23.2762 64.2479 23.3966 65.3977 24.3922C66.3979 25.2587 65.5553 25.7704 62.4925 26.1566C59.3638 26.5509 56.9976 25.8322 53.886 23.5413C49.7941 20.5307 49.7115 20.5304 52.12 23.5198L54.6467 26.6574L50.6258 24.7341C48.036 23.4962 46.8539 23.4313 47.3039 24.5532C47.6885 25.5102 48.869 26.5748 49.9284 26.9206C51.5026 27.4331 51.356 27.7532 49.1255 28.6768C47.6258 29.2983 45.2783 29.3703 43.9098 28.8384C41.077 27.736 32.0453 29.0807 30.7131 30.804C30.2268 31.4325 31.8548 31.2419 34.3324 30.3796C42.0874 27.6812 41.0449 30.0768 32.9741 33.502C28.1674 35.5422 25.3251 36.1112 25.3997 35.0199C25.4656 34.0609 24.235 34.9092 22.664 36.9071C21.0947 38.9048 20.2252 40.8635 20.7336 41.2595C21.242 41.6555 24.4098 41.5385 27.772 40.9997ZM67.1976 74.3439C67.987 74.0749 67.7006 73.5895 66.5247 73.2061C64.2352 72.4613 63.3655 72.9036 64.8484 74.0586C65.3825 74.4747 66.4392 74.6028 67.1976 74.3439ZM82.2132 80.1961C83.2118 79.4544 83.0233 80.1728 81.7949 81.7925C80.5664 83.4123 79.7503 84.0197 79.9803 83.1416C80.2103 82.2635 81.2147 80.9378 82.2132 80.1961ZM33.1596 35.2783C42.7056 31.2375 44.6611 31.3177 39.4444 35.5372C36.7922 37.683 25.8767 40.5806 24.4959 39.5051C24.2401 39.3059 28.1392 37.4035 33.1596 35.2783ZM65.3593 68.2102C67.1487 68.7186 67.5595 68.5528 66.5668 67.7234C65.7396 67.0307 64.0355 66.3468 62.7813 66.2022C60.0021 65.8818 61.6304 67.1501 65.3593 68.2102ZM163.504 134.714C167.127 130.062 167.725 120.909 165.295 107.272C163.991 99.9601 163.542 94.8381 164.296 95.8908C167.132 99.8484 181.697 113.815 182.873 113.705C185.023 113.502 181.945 103.018 178.395 98.4471C176.511 96.0224 174.617 94.0714 174.187 94.1128C173.757 94.1525 175.069 96.2611 177.102 98.796C179.136 101.331 180.873 104.633 180.964 106.133C181.112 108.585 180.923 108.59 179.096 106.17C177.466 104.011 177.198 103.938 177.742 105.798C178.264 107.585 177.005 106.808 172.263 102.414C166.01 96.6214 163.881 92.7817 166.438 91.9092C167.39 91.5843 166.998 91.2755 165.231 90.9614C163.171 90.5938 162.061 88.8921 160.03 82.9891L157.448 75.4829L159.169 83.4504C160.497 89.6071 160.391 91.7467 158.699 92.8646C157.243 93.8267 157.067 94.3873 158.17 94.5362C159.275 94.686 158.79 96.2013 156.722 99.0692C154.285 102.447 154.2 102.823 156.326 100.805C157.818 99.3899 159.779 98.1504 160.686 98.0522C163.067 97.7925 164.297 106.042 162.267 108.649C160.383 111.068 159.359 126.168 160.621 132.921L161.449 137.352L163.504 134.714ZM134.733 108.637C136.75 109.549 136.844 109.168 135.501 105.524C134.659 103.239 133.255 100.854 132.381 100.221C131.506 99.5888 131.58 100.452 132.544 102.138C133.99 104.665 133.924 105.029 132.175 104.208C131.008 103.66 129.736 103.617 129.35 104.112C128.623 105.046 130.759 106.843 134.733 108.637ZM161.508 118.249C161.758 114.354 162.157 110.917 162.397 110.61C162.96 109.887 164.929 111.94 165.813 114.175C166.945 117.037 165.277 128.628 163.651 129.182C161.55 129.899 160.955 126.869 161.508 118.249ZM163.729 128.043C164.091 127.579 164.374 125.826 164.361 124.148C164.336 121.204 164.295 121.191 163.207 123.757C162.085 126.408 162.48 129.648 163.729 128.043ZM150.696 114.773C152.648 113.719 155.379 111.017 156.767 108.767L159.291 104.676L155.876 108.703C153.249 111.8 151.849 112.522 149.811 111.833C147.495 111.049 147.16 111.3 147.155 113.812C147.15 116.513 147.365 116.571 150.696 114.773ZM63.2727 43.2126C66.278 41.2856 69.488 38.3406 70.4081 36.668C71.9127 33.9344 71.7904 33.9531 69.2064 36.8516C67.6233 38.6246 65.2495 40.6406 63.9289 41.3298C61.9377 42.3696 61.9503 41.9812 64.0034 39.0454C66.2948 35.7675 66.2776 35.6385 63.7591 37.2935C59.9303 39.8097 55.732 45.0956 56.8633 45.9767C57.384 46.3824 60.2691 45.1394 63.2727 43.2126ZM73.8165 48.8329C80.7015 44.854 86.0882 39.3507 87.1488 35.2109C87.8366 32.5282 87.4827 32.8039 85.1332 36.7798C83.5329 39.4873 80.1915 43.0499 77.5144 44.9L72.7459 48.1973L75.4214 44.0348C76.893 41.7455 77.9905 39.1368 77.8597 38.2369C77.6636 36.8848 68.3656 49.9559 68.4239 51.502C68.4331 51.7433 70.8601 50.5418 73.8165 48.8329ZM129.101 96.455C128.005 95.2293 125.917 93.6036 124.461 92.8406C123.003 92.0785 123.9 93.0817 126.452 95.0697C129.005 97.0576 130.197 97.6817 129.101 96.455ZM126.759 90.2959C131.059 91.7867 131.193 91.7335 129.918 89.0397C128.276 85.5701 127.337 84.7635 127.179 86.6911C127.107 87.5778 125.279 86.8164 122.563 84.7665C120.089 82.9007 116.848 81.0228 115.361 80.5931C113.611 80.0891 114.777 81.2237 118.658 83.8048C122.962 86.6667 123.875 87.6026 121.881 87.1118C117.813 86.1088 121.362 88.4269 126.759 90.2959ZM165.082 117.862C165.301 116.362 165.202 114.442 164.862 113.595C164.522 112.746 164.147 113.821 164.029 115.982C163.781 120.559 164.499 121.842 165.082 117.862ZM41.6815 23.3863C41.0465 21.7532 41.2229 21.5267 42.8103 21.937C43.8449 22.2041 43.1205 21.5665 41.2025 20.5192C37.9019 18.7198 37.884 18.6215 40.8629 18.7025C45.163 18.8208 43.4534 17.725 38.4948 17.1843L34.4747 16.7469L36.4554 19.3453C39.5143 23.3566 42.5967 25.7403 41.6815 23.3863ZM153.313 107.046C154.353 105.71 154.546 104.98 153.739 105.426C152.932 105.871 152.081 106.964 151.847 107.856C151.612 108.747 152.272 108.383 153.313 107.046ZM151.733 102.693C152.774 101.356 152.966 100.627 152.16 101.073C151.353 101.517 150.501 102.611 150.267 103.503C150.032 104.393 150.692 104.029 151.733 102.693ZM97.5027 55.8291C102.183 55.5047 104.995 54.6171 105.351 53.3534C105.658 52.2699 106.357 51.7339 106.906 52.1612C107.456 52.5893 108.575 52.2306 109.392 51.3647C110.21 50.4996 109.494 52.225 107.801 55.2006L104.723 60.6113L109.193 55.2061C115.555 47.5125 118.433 48.7637 118.458 59.2307C118.464 61.9911 119.099 64.2222 119.866 64.1876C120.635 64.1528 120.445 64.4319 119.444 64.8064C118.084 65.3166 117.27 63.504 116.212 57.6047L114.801 49.7215L114.944 56.08C115.131 64.2985 116.485 71.3405 117.856 71.2121C121.741 70.8446 122.769 52.0242 119.062 49.1366C118.014 48.3206 117.281 46.5193 117.431 45.1337C117.632 43.2849 117.408 42.9792 116.586 43.9851C115.972 44.7392 113.628 45.588 111.379 45.8714C107.625 46.3436 107.503 46.4568 109.897 47.2359C112.469 48.0729 112.45 48.1027 108.4 49.3618C106.142 50.0639 102.246 51.3861 99.7416 52.2995C97.2375 53.213 94.9958 53.483 94.7614 52.8991C94.528 52.316 92.9724 52.5114 91.3078 53.3339C86.9055 55.508 89.1419 56.4082 97.5027 55.8291ZM65.3589 32.9444C66.1913 31.7735 66.1263 31.3528 65.194 31.8712C64.3494 32.3408 63.7332 33.2086 63.8242 33.7979C63.9152 34.3873 64.6053 34.0033 65.3589 32.9444ZM141.967 91.0681C143.242 90.4057 146.262 87.1878 148.679 83.917C152.009 79.409 152.951 78.6312 152.572 80.7031C152.199 82.7347 152.75 82.2406 154.714 78.781C156.903 74.9283 157.962 74.1125 160.865 74.0438C162.794 73.9987 164.293 73.4431 164.195 72.8094C164.096 72.1766 164.933 72.3165 166.053 73.1213C167.173 73.9268 167.686 73.919 167.193 73.1073C166.7 72.2938 164.143 71.4761 161.508 71.2898C158.817 71.0988 156.197 70.1232 155.529 69.0614C154.516 67.4523 154.363 67.5595 154.498 69.7882C154.716 73.4111 144.37 89.0386 143.093 87.0122C142.061 85.3725 141.346 86.0901 140.33 89.7926C139.659 92.2404 139.68 92.2565 141.967 91.0681ZM100.356 53.1609C102.552 52.2145 104.416 51.8882 104.501 52.4367C104.659 53.4574 97.8199 56.0154 96.8836 55.286C96.599 55.0644 98.1612 54.1074 100.356 53.1609ZM87.614 47.2852C89.6713 46.45 96.1344 35.9633 95.0908 35.1504C94.0038 34.3038 91.795 37.0887 88.5837 43.3557C87.3255 45.8113 86.8883 47.5788 87.614 47.2852ZM101.832 49.6664C104.754 48.5641 106.936 47.5 106.681 47.3016C105.971 46.7482 96.2975 50.2292 96.416 50.996C96.4733 51.367 98.9109 50.7687 101.832 49.6664ZM94.4699 44.7157C96.0908 43.7748 98.9521 40.9096 100.829 38.347L104.24 33.6883L99.2982 38.4275C96.5801 41.0343 93.4252 43.6724 92.2875 44.2886C91.1509 44.9055 90.512 45.6385 90.8709 45.918C91.2287 46.1967 92.8479 45.6558 94.4699 44.7157ZM59.7446 20.1123C57.7742 17.9623 56.965 16.7293 57.948 17.3732C59.6355 18.4783 65.3312 18.2173 63.8968 17.1001C63.5255 16.8109 61.0754 15.9426 58.4522 15.1689C52.2061 13.3287 52.1728 15.8325 58.3825 20.3912L63.3274 24.0211L59.7446 20.1123ZM149.467 87.5933C150.497 87.0008 151.708 85.9815 152.16 85.3293C152.61 84.6772 151.718 84.8442 150.177 85.7009C148.636 86.5587 147.425 87.577 147.485 87.9657C147.545 88.3545 148.437 88.1875 149.467 87.5933ZM140.026 76.2893C143.087 73.7105 147.49 65.2606 148.161 60.6723C148.6 57.6663 149.194 57.8822 151.239 61.7921C152.643 64.4773 152.664 64.4671 151.868 61.5013C151.414 59.8124 150.592 57.9962 150.041 57.4656C149.489 56.9341 150.69 57.2503 152.71 58.1674L156.381 59.8354L153.439 57.2314L150.496 54.6284L156.054 56.0013C159.111 56.7566 161.01 56.8881 160.275 56.292C159.54 55.6976 157.61 54.9485 155.986 54.6289C153.734 54.185 153.432 53.9119 154.709 53.4752C157.279 52.5988 165.016 55.2458 168.729 58.2723L172.056 60.9833L166.883 59.1157C162.338 57.4742 162.167 57.5002 165.471 59.3325C170.654 62.2078 169.404 62.9363 162.437 61.1011C159.224 60.2552 157.226 60.07 157.998 60.6905C158.771 61.311 163.06 62.4363 167.529 63.1898C174.394 64.3494 175.435 64.2071 174.238 62.2803C170.265 55.8752 160.168 51.3429 151.311 51.9867C147.208 52.2856 145.923 53.0931 142.77 57.3538C139.704 61.4981 139.574 61.9571 142.022 59.9926C144.93 57.6578 144.942 57.7152 142.681 63.1497C139.703 70.3016 139.007 71.0256 139.411 66.5479C139.807 62.1449 139.287 63.3817 137.292 71.581C136.464 74.9838 136.075 77.9948 136.428 78.273C136.782 78.5513 138.4 77.6584 140.026 76.2893ZM82.726 29.4237C84.3802 27.2766 84.7608 26.3518 83.5726 27.369C82.3844 28.3861 81.0309 30.1429 80.565 31.2728C80.0991 32.4028 81.0719 31.5708 82.726 29.4237ZM119.499 56.8947C119.577 53.3546 119.826 52.7179 120.357 54.7021C121.111 57.5243 120.762 62.954 119.87 62.2592C119.605 62.0528 119.439 59.6398 119.499 56.8947ZM175.681 101.531C174.88 100.513 173.255 99.2473 172.072 98.7195C170.89 98.1908 171.546 99.0231 173.531 100.569C175.516 102.115 176.483 102.547 175.681 101.531ZM139.692 70.8349C140.578 70.3254 142.262 67.5973 143.436 64.7715C147.507 54.977 147.641 54.7608 147.179 58.7406C146.488 64.6735 142.521 72.5671 140.364 72.3033C137.897 72.0011 137.849 71.8966 139.692 70.8349ZM108.867 40.7214C110.489 40.4153 111.767 38.9477 113.173 35.7785C115.137 31.3553 115.127 31.3274 112.672 34.2697C111.297 35.9177 109.502 37.0163 108.682 36.7109C107.649 36.3248 107.097 36.9191 106.877 38.6562C106.606 40.7998 106.892 41.096 108.867 40.7214ZM84.2883 17.8245C83.1864 16.593 81.3233 15.1559 80.1482 14.6311C78.9731 14.1062 79.8746 15.1143 82.1516 16.8707C84.4286 18.6271 85.3902 19.056 84.2883 17.8245ZM165.457 79.0272C168.081 80.0403 168.29 79.9594 166.643 78.5686C165.543 77.6404 163.618 76.7621 162.363 76.6175C159.7 76.3105 160.954 77.2872 165.457 79.0272ZM90.202 19.298C91.537 19.924 93.3495 20.3878 94.2293 20.3282C95.1091 20.2686 93.6488 19.2718 90.9826 18.115C83.7985 14.9944 83.1443 15.9855 90.202 19.298ZM173.931 83.0382C174.99 83.4335 176.72 84.0835 177.777 84.4818C180.95 85.6808 177.185 78.8787 172.959 75.7772L169.269 73.0699L172.852 76.9787L176.434 80.8875L172.081 77.9681L167.727 75.0489L170.993 78.3013C173.745 81.0412 173.837 81.4252 171.579 80.7396C168.647 79.8501 170.66 81.8177 173.931 83.0382ZM116.685 34.7924C118.142 32.9214 118.525 31.9911 117.538 32.7245C116.55 33.4571 115.357 34.9889 114.889 36.1263C114.419 37.2629 115.228 36.6634 116.685 34.7924ZM85.4917 12.9184C85.8126 11.7832 87.0133 11.452 88.5886 12.0652C90.0046 12.6169 91.1109 12.7259 91.0457 12.3097C90.9823 11.8933 88.3743 10.8661 85.2502 10.0272C79.2943 8.427 78.2085 9.50823 82.452 12.8134C84.2257 14.195 85.123 14.2256 85.4917 12.9184ZM136.759 48.8663C137.128 46.5774 137.662 44.8854 137.946 45.1063C138.23 45.3272 138.159 47.3806 137.79 49.6695C137.421 51.9583 136.886 53.6504 136.603 53.4295C136.319 53.2086 136.389 51.1551 136.759 48.8663ZM133.547 44.3452C133.905 43.0849 133.749 42.0966 133.198 42.1485C132.648 42.1995 132.354 43.2304 132.545 44.4398C132.822 46.1859 133.027 46.1656 133.547 44.3452ZM95.4299 14.0474C94.9052 13.1874 93.988 12.5291 93.3943 12.5852C92.8006 12.6412 93.2304 13.3445 94.3498 14.1493C95.5875 15.0384 96.0113 14.9984 95.4299 14.0474ZM76.6827 -9.09198C83.6613 -10.9022 83.7806 -10.9872 83.8535 -14.2035C83.8941 -15.9787 83.6533 -15.8524 82.8024 -13.6559C82.1165 -11.8883 81.485 -11.3371 81.1382 -12.2021C80.8292 -12.969 79.613 -12.8795 78.4327 -12.0045C77.2525 -11.1295 76.0454 -11.0157 75.749 -11.754C75.4537 -12.4916 73.9895 -11.9455 72.4954 -10.542C71.0015 -9.1367 69.9286 -7.87206 70.1101 -7.73069C70.2916 -7.58932 73.2495 -8.20253 76.6827 -9.09198ZM57.9409 -20.1154C60.4138 -19.7805 64.1725 -19.8199 66.2932 -20.2028C69.2295 -20.7329 68.7276 -20.899 64.1879 -20.8948C60.9099 -20.8917 56.9381 -21.0572 55.3615 -21.2624C53.786 -21.4667 52.7096 -21.4291 52.9704 -21.1791C53.2305 -20.928 55.4672 -20.4493 57.9409 -20.1154ZM66.8485 -25.4061C72.7939 -26.1472 77.8743 -26.2097 78.141 -25.5459C78.408 -24.8804 79.0501 -24.8816 79.5687 -25.5474C80.0865 -26.2122 82.4276 -27.0652 84.7725 -27.4423L89.0338 -28.1271L84.6864 -27.9996C82.2948 -27.9307 79.7883 -28.3011 79.116 -28.8248C78.4426 -29.3493 77.5629 -29.3537 77.1594 -28.8357C76.7566 -28.3186 75.9603 -28.6342 75.3904 -29.5404C74.8207 -30.4448 73.6908 -30.9596 72.8807 -30.6832C71.9845 -30.3772 72.2104 -29.9184 73.4579 -29.512C77.1774 -28.3015 74.3911 -27.2534 64.9269 -26.3001C59.7932 -25.7842 55.6946 -25.0679 55.818 -24.7094C55.9403 -24.3517 60.9049 -24.6652 66.8485 -25.4061ZM94.4964 -7.8659C99.3332 -10.6573 99.3475 -10.6821 95.7347 -10.0152C93.2016 -9.54745 92.2051 -9.84424 92.4894 -10.9814C92.7155 -11.8843 91.8632 -11.1475 90.5962 -9.34215C87.4885 -4.91828 88.6371 -4.48274 94.4964 -7.8659ZM73.7374 -22.2173C75.2389 -22.8389 76.4159 -23.6821 76.3518 -24.0912C76.2887 -24.4995 74.8548 -24.1517 73.165 -23.316C69.4547 -21.4836 69.8998 -20.6278 73.7374 -22.2173ZM65.9037 -30.1366L69.5716 -30.7933L65.8092 -30.749C62.274 -30.7072 61.0552 -30.3995 61.8801 -29.7569C62.0761 -29.6043 63.8865 -29.7761 65.9037 -30.1366ZM214.956 78.1515C216.819 73.1283 217.343 63.6919 215.965 59.9839C215.215 57.9646 212.989 54.8004 211.018 52.953C209.048 51.1047 206.444 47.5169 205.232 44.9783L203.029 40.3622L210.681 45.4278L218.334 50.4923L210.823 44.1815C205.216 39.4705 204.233 38.3053 206.949 39.5835L210.585 41.2962L207.818 38.4677L205.05 35.6401L209.978 37.403C212.905 38.4496 215.808 40.337 217.128 42.0494L219.35 44.934L216.199 43.6617C213.098 42.4099 213.095 42.4309 215.976 45.011C217.587 46.4529 219.293 47.8516 219.768 48.1192C220.244 48.3878 220.291 49.0443 219.874 49.5789C219.458 50.1134 219.841 51.1147 220.725 51.8031C223.194 53.7268 222.856 50.6411 219.955 44.7994C216.976 38.8003 212.844 36.0564 205.156 34.9727C201.55 34.4646 199.769 34.983 198.226 36.9882C196.847 38.7797 196.764 39.4864 197.98 39.0889C199.479 38.5971 199.826 38.867 199.901 40.5853C200.012 43.152 198.183 54.0281 197.491 54.9174C196.414 56.2995 195.766 50.2552 196.483 45.5247C196.899 42.7821 196.894 40.9716 196.474 41.503C194.872 43.519 195.056 59.9189 196.693 61.1936C198.143 62.3229 202.787 53.9845 203.142 49.6141C203.776 41.8468 205.386 45.1952 206.307 56.1936C206.769 61.7098 207.788 67.4851 208.571 69.0275C209.355 70.5718 209.203 68.2593 208.233 63.8905C207.264 59.5208 206.88 55.9081 207.379 55.861C208.778 55.7291 212.453 72.0229 211.126 72.4759C209.942 72.8794 211.473 78.952 213.074 80.1986C213.553 80.5721 214.4 79.6502 214.956 78.1515ZM89.688 -19.8096C90.9165 -21.4293 91.1049 -22.1477 90.1064 -21.406C89.1079 -20.6643 88.1034 -19.3386 87.8734 -18.4605C87.6434 -17.5824 88.4595 -18.1898 89.688 -19.8096ZM212.054 73.3141C212.744 73.0787 212.414 68.6055 211.321 63.374C210.021 57.1489 209.955 54.3456 211.128 55.2597C214.109 57.581 215.385 61.5236 215.342 68.2707C215.311 73.104 214.828 74.6237 213.38 74.4452C210.867 74.1357 210.519 73.838 212.054 73.3141ZM100.666 -14.5121C101.498 -15.6829 101.433 -16.1036 100.501 -15.5852C99.6561 -15.1156 99.0398 -14.2478 99.1309 -13.6585C99.2219 -13.0691 99.912 -13.4531 100.666 -14.5121ZM108.131 -8.86593C111.862 -12.7291 113.297 -14.6943 112.717 -15.1457C111.667 -15.9634 106.429 -10.6522 106.966 -9.31431C107.224 -8.67137 107.749 -8.46876 108.131 -8.86593ZM90.0791 -24.3194C90.9116 -25.4902 90.8466 -25.9109 89.9143 -25.3925C89.0696 -24.9229 88.4534 -24.0551 88.5445 -23.4658C88.6355 -22.8764 89.3255 -23.2604 90.0791 -24.3194ZM106.605 -16.0026C107.833 -17.6224 108.022 -18.3408 107.023 -17.5991C106.025 -16.8574 105.02 -15.5317 104.79 -14.6536C104.56 -13.7755 105.376 -14.3829 106.605 -16.0026ZM101.449 -20.0187C102.677 -21.6385 102.866 -22.3569 101.867 -21.6152C100.869 -20.8735 99.8641 -19.5477 99.6342 -18.6697C99.4042 -17.7916 100.22 -18.3989 101.449 -20.0187ZM200.153 48.6633C200.816 44.6692 201.562 41.5623 201.813 41.7574C202.82 42.5422 201.975 50.7643 200.549 54.0435C198.677 58.3525 198.637 57.8025 200.153 48.6633ZM134.755 2.75185C136.751 2.13224 138.447 2.04331 138.526 2.55633C138.658 3.41018 132.384 4.85761 131.509 4.17569C131.301 4.01343 132.761 3.37227 134.755 2.75185ZM96.0557 -24.5878C96.6433 -24.6424 98.0214 -25.8395 99.1184 -27.2479C100.215 -28.6553 102.18 -29.9834 103.487 -30.1977C104.793 -30.4127 103.904 -30.5369 101.509 -30.4749C99.1149 -30.4129 97.0778 -30.8627 96.9829 -31.4769C96.8038 -32.6361 91.6682 -32.573 90.7552 -31.4008C90.4683 -31.0324 91.3414 -30.2368 92.6938 -29.6331C94.0472 -29.0287 94.6517 -28.3627 94.0363 -28.1534C92.6912 -27.6941 94.5321 -24.4441 96.0557 -24.5878ZM83.4192 -34.3475C82.8945 -35.2075 81.9773 -35.8658 81.3836 -35.8098C80.7899 -35.7538 81.2197 -35.0504 82.3391 -34.2457C83.5769 -33.3566 84.0006 -33.3965 83.4192 -34.3475ZM78.4829 -38.8202C75.9481 -42.9683 78.2441 -42.5042 84.4032 -37.621L89.7898 -33.3521L85.7152 -37.6782C83.0327 -40.5265 80.2512 -42.4072 77.5767 -43.1832L73.5129 -44.3622L75.6005 -41.0544C76.7479 -39.2346 78.2589 -37.3457 78.957 -36.855C79.6558 -36.3653 79.4421 -37.2502 78.4829 -38.8202ZM188.977 42.3003C189.873 41.0667 190.89 38.8717 191.235 37.4227L191.863 34.7888L190.204 36.6194L188.545 38.4501L189.173 35.8162C190.053 32.1248 190.779 31.2458 191.491 33.0166C191.826 33.8522 192.417 32.5762 192.803 30.1814C193.189 27.7856 194.115 25.6172 194.858 25.3642C195.603 25.1103 195.72 24.5192 195.12 24.0517C194.52 23.5843 194.284 22.8745 194.598 22.4739C194.912 22.0732 199.444 23.7762 204.669 26.2549C216.037 31.6489 218.773 32.2497 217.604 29.0948C217.163 27.9064 215.856 26.2341 214.698 25.3807C212.642 23.8619 212.626 23.8795 214.024 26.1304C215.349 28.2648 215.232 28.3361 212.437 27.105C210.777 26.3746 208.249 24.8861 206.819 23.7972C204.72 22.1987 204.367 22.2409 204.992 24.0145C205.547 25.5912 204.775 25.1426 202.26 22.428C199.744 19.7109 198.717 19.1144 198.619 20.315C198.544 21.2343 198.019 21.6251 197.452 21.1833C194.713 19.05 197.22 17.6797 202.064 18.6617C205.041 19.266 207.003 19.361 206.424 18.8708C205.844 18.3816 202.084 17.5747 198.068 17.0783C192.618 16.4048 190.845 16.6865 191.077 18.1918C191.248 19.3013 190.382 21.5686 189.152 23.229C187.231 25.8245 187.256 26.0751 189.328 25.0061C191.675 23.7968 191.714 23.8365 190.739 26.4779C190.188 27.9715 190.223 29.2587 190.816 29.3396C191.41 29.4195 190.894 30.7713 189.67 32.3429C187.764 34.7893 187.349 34.8483 186.787 32.7617C186.425 31.4198 186.062 33.2416 185.98 36.81C185.812 44.1253 186.6 45.5693 188.977 42.3003ZM134.15 -0.986617C136.217 -1.63009 137.167 -2.25648 136.261 -2.37813C134.531 -2.61204 129.212 -0.736841 129.958 -0.155315C130.196 0.0302295 132.082 -0.343948 134.15 -0.986617ZM152.129 0.416516C152.883 -0.552511 154.662 5.38612 155.348 11.1738C156.109 17.5929 156.1 17.5801 153.978 9.20926C152.804 4.57619 151.97 0.619646 152.129 0.416516ZM149.882 7.55526C149.919 5.00778 149.718 2.74305 149.435 2.52216C149.151 2.30128 148.888 4.20456 148.851 6.75204C148.813 9.29952 149.014 11.5642 149.298 11.7851C149.581 12.006 149.845 10.1027 149.882 7.55526ZM112.417 -24.6881C115.295 -29.2785 116.415 -30.1487 120.028 -30.603C125.974 -31.3531 126.763 -30.1516 122.745 -26.4649C119.768 -23.7346 119.699 -23.5165 122.245 -24.8805C123.869 -25.7497 125.568 -27.3608 126.021 -28.4589C126.572 -29.7932 127.185 -29.915 127.871 -28.8244C128.436 -27.9267 128.406 -26.4235 127.802 -25.4822C127.198 -24.541 128.337 -25.287 130.334 -27.1377C133.128 -29.7301 135.179 -30.3864 139.243 -29.991C143.299 -29.5957 144.493 -29.0391 144.393 -27.5943C144.3 -26.2645 144.736 -26.2606 145.874 -27.5792C146.759 -28.6074 147.294 -28.7191 147.059 -27.8279C146.401 -25.3263 148.351 -24.5134 149.984 -26.6099C151.099 -28.0426 153.041 -27.8205 158.206 -25.6711C161.925 -24.1238 165.221 -22.6607 165.529 -22.4205C165.837 -22.1804 164.472 -19.5554 162.494 -16.5861L158.898 -11.1886L162.958 -16.0077C166.894 -20.6808 167.097 -20.7495 169.595 -18.2854C172.109 -15.8058 172.123 -15.8106 170.177 -18.5005C168.5 -20.8197 168.683 -22.1013 171.326 -26.5561L174.47 -31.8532L170.892 -27.5939L167.314 -23.3336L159.319 -26.6955C154.847 -28.5762 150.48 -31.1719 149.408 -32.5845C147.926 -34.5402 147.663 -34.609 148.245 -32.8863C148.857 -31.0745 148.513 -31.0286 146.395 -32.6388C144.272 -34.2539 143.93 -34.2073 144.538 -32.3817C145.017 -30.9401 144.754 -30.3021 143.799 -30.5856C142.983 -30.8275 139.993 -31.1513 137.153 -31.3048C134.313 -31.4592 131.553 -32.2785 131.019 -33.125C130.476 -33.9869 129.058 -34.0107 127.801 -33.1798C126.295 -32.184 124.625 -32.3821 122.735 -33.7807C120.493 -35.4395 120.188 -35.426 121.245 -33.7139C122.514 -31.6589 122.422 -31.5529 119.222 -31.4104C117.379 -31.3283 114.87 -31.9318 113.647 -32.753C112.425 -33.5724 111.381 -33.7198 111.329 -33.0799C111.278 -32.4403 110.047 -32.8418 108.596 -33.972C107.145 -35.1021 105.579 -35.5424 105.118 -34.9505C104.586 -34.2672 105.475 -33.3245 107.545 -32.3762C110.556 -30.9971 110.59 -30.8319 107.988 -30.2496C105.667 -29.7307 105.876 -29.6207 109.155 -29.632C112.761 -29.6454 112.95 -29.5282 111.104 -28.4238C109.883 -27.6926 109.657 -27.121 110.542 -27.0011C111.358 -26.8907 111.416 -26.0038 110.671 -25.0303C109.927 -24.056 109.255 -22.3698 109.179 -21.2821C109.099 -20.1317 110.452 -21.5544 112.417 -24.6881ZM120.611 -14.5929C121.443 -15.7638 121.378 -16.1844 120.446 -15.666C119.601 -15.1964 118.985 -14.3288 119.076 -13.7394C119.167 -13.1501 119.857 -13.5339 120.611 -14.5929ZM107.205 -25.0347C108.037 -26.2055 107.972 -26.6262 107.04 -26.1078C106.195 -25.6382 105.579 -24.7705 105.67 -24.1812C105.761 -23.5918 106.451 -23.9757 107.205 -25.0347ZM87.2044 -39.2073C86.6797 -40.0673 85.7625 -40.7255 85.1688 -40.6695C84.5751 -40.6135 85.0049 -39.9101 86.1243 -39.1054C87.362 -38.2163 87.7859 -38.2563 87.2044 -39.2073ZM128.325 -10.3535C129.674 -10.8347 131.316 -12.5664 131.973 -14.2016L133.169 -17.1745L130.392 -15.1664C128.864 -14.0623 127.222 -12.3305 126.742 -11.319C125.975 -9.69773 126.162 -9.58307 128.325 -10.3535ZM179.921 22.1639C184.716 16.0031 185.498 5.18256 180.904 8.56706C179.857 9.33849 180.016 9.44056 181.585 9.00434C184.87 8.09288 183.391 13.7139 179.285 17.7474C176.863 20.1273 175.982 21.8971 176.396 23.5501C176.904 25.5806 177.423 25.3758 179.921 22.1639ZM125.427 -18.6494C126.259 -19.8202 126.194 -20.2409 125.262 -19.7225C124.417 -19.2529 123.801 -18.3852 123.892 -17.7959C123.983 -17.2065 124.673 -17.5904 125.427 -18.6494ZM100.587 -36.5779C95.0296 -42.0618 93.9253 -43.8433 95.5147 -44.7587C96.6652 -45.4211 96.2817 -46.0837 94.0771 -47.2417C92.4225 -48.1104 90.7836 -48.4546 90.4354 -48.0075C89.5239 -46.8373 95.317 -39.6081 99.6781 -36.4751C103.188 -33.9553 103.239 -33.9609 100.587 -36.5779ZM102.37 -38.3356C101.569 -39.3532 99.9434 -40.6191 98.7606 -41.1468C97.5785 -41.6755 98.2341 -40.8432 100.219 -39.297C102.204 -37.7509 103.172 -37.3189 102.37 -38.3356ZM172.308 7.45465C173.281 5.42042 174.229 1.25528 174.416 -1.80163C174.845 -8.84627 175.194 -9.22411 178.016 -5.71096C181.37 -1.53563 181.62 0.810021 179.091 4.34003L176.846 7.47578L179.904 5.17282C181.586 3.90646 182.649 3.38657 182.265 4.01805C181.881 4.64954 182.994 6.27884 184.74 7.63869C187.117 9.49009 187.673 9.57632 186.955 7.98527C185.48 4.7142 186.947 3.98417 190.994 5.97786C193.017 6.9739 194.608 7.37311 194.529 6.86541C194.45 6.35692 192.621 5.30844 190.463 4.53499C188.306 3.76056 186.582 2.62374 186.631 2.0067C186.682 1.38868 189.485 2.13369 192.86 3.66034C196.236 5.18701 198.938 6.04247 198.863 5.56237C198.789 5.08131 196.634 3.89957 194.073 2.93543C188.009 0.651186 187.742 -1.27242 193.723 0.404673C196.265 1.11844 197.618 1.10698 196.727 0.378768C195.835 -0.348464 192.26 -1.12328 188.783 -1.3409C182.898 -1.7104 182.22 -2.04456 179.02 -6.14429C175.104 -11.1635 175.286 -12.4927 179.62 -10.5081C183.615 -8.67875 192.918 -7.28088 193.775 -8.3821C194.15 -8.86321 192.693 -10.5825 190.537 -12.2018C187.607 -14.4017 186.979 -14.563 188.05 -12.8387C189.301 -10.8243 188.934 -10.7286 185.146 -12.0866C179.498 -14.1121 178.92 -14.6979 182.732 -14.537C184.444 -14.4635 185.452 -14.7107 184.972 -15.0842C183.276 -16.4055 173.324 -16.16 172.242 -14.7701C171.078 -13.2762 171.824 -5.58053 173.18 -5.07366C173.622 -4.90912 173.145 -3.69888 172.122 -2.38482C169.695 0.731233 169.396 0.342495 169.76 -5.4606C169.927 -8.12292 169.718 -9.26663 169.295 -8.00473C168.304 -5.05034 168.637 9.51734 169.716 10.4439C170.169 10.8343 171.335 9.48887 172.308 7.45465ZM108.786 -38.0648C107.4 -39.5018 104.847 -41.4906 103.115 -42.4824C101.382 -43.4743 102.516 -42.299 105.635 -39.8693C108.755 -37.4396 110.172 -36.6277 108.786 -38.0648ZM180.473 15.0779C181.073 14.3071 181.334 13.1047 181.053 12.4045C180.773 11.7042 180.103 12.196 179.567 13.4974C178.429 16.2577 178.906 17.0898 180.473 15.0779ZM177.443 11.3871C177.802 10.1268 177.645 9.13838 177.094 9.19035C176.544 9.24135 176.25 10.2723 176.441 11.4817C176.718 13.2278 176.923 13.2075 177.443 11.3871ZM169.53 2.42259C169.602 1.54498 170.487 0.822205 171.497 0.818756C172.507 0.813526 172.882 0.926627 172.33 1.06967C171.78 1.21256 171.389 2.31931 171.461 3.52816C171.552 5.02971 171.246 5.45658 170.497 4.87265C169.894 4.40357 169.459 3.301 169.53 2.42259ZM115.583 -39.5698C114.487 -41.3673 114.489 -42.7335 115.591 -43.3679C116.915 -44.1295 116.485 -45.0047 113.737 -47.1453C111.769 -48.6778 109.996 -49.7217 109.796 -49.4651C109.221 -48.7265 114.395 -38.8137 115.919 -37.7356C116.678 -37.1993 116.526 -38.0252 115.583 -39.5698ZM144.575 -20.0022C145.616 -21.3386 145.808 -22.0681 145.002 -21.6219C144.195 -21.1775 143.343 -20.084 143.109 -19.1921C142.875 -18.3018 143.534 -18.6658 144.575 -20.0022ZM125.147 -34.607C124.648 -35.4298 123.488 -36.3334 122.569 -36.615C121.649 -36.8984 122.058 -36.2256 123.476 -35.1212C124.894 -34.0168 125.645 -33.786 125.147 -34.607ZM119.991 -38.6231C119.492 -39.4459 118.331 -40.3495 117.412 -40.6311C116.493 -40.9145 116.902 -40.2417 118.32 -39.1373C119.738 -38.0328 120.489 -37.802 119.991 -38.6231ZM190.207 13.7848C190.024 12.5747 189.425 11.6281 188.875 11.6808C188.324 11.7328 188.473 12.7219 189.205 13.8793C190.265 15.5507 190.469 15.5323 190.207 13.7848ZM141.73 -24.6902C142.563 -25.8611 142.498 -26.2818 141.565 -25.7634C140.721 -25.2937 140.104 -24.426 140.195 -23.8367C140.286 -23.2473 140.976 -23.6313 141.73 -24.6902ZM126.42 -38.3688C125.323 -39.5945 123.236 -41.2202 121.779 -41.9833C120.322 -42.7454 121.219 -41.7422 123.771 -39.7542C126.323 -37.7663 127.516 -37.1422 126.42 -38.3688ZM134.673 -40.9882L133.177 -44.3852L135.585 -42.5656C136.918 -41.5575 138.046 -41.4001 138.113 -42.2132C138.253 -43.9374 132.444 -48.7618 131.573 -47.6441C130.907 -46.7888 133.875 -39.2361 135.27 -38.2358C135.764 -37.8817 135.496 -39.1198 134.673 -40.9882ZM202.651 10.0037C209.504 11.5489 209.973 9.90267 204.078 4.98016C199.631 1.2664 199.376 1.18059 201.846 4.23172C205.811 9.13107 205.553 9.85326 200.359 8.40632C197.839 7.7049 196.213 7.52692 196.747 8.01145C197.28 8.49598 199.937 9.39257 202.651 10.0037ZM141.998 -37.0976C141.499 -37.9204 140.339 -38.824 139.42 -39.1056C138.501 -39.389 138.91 -38.7161 140.328 -37.6117C141.745 -36.5073 142.497 -36.2765 141.998 -37.0976ZM145.079 -37.8628C144.278 -38.8805 142.653 -40.1463 141.47 -40.6741C140.288 -41.2028 140.944 -40.3705 142.929 -38.8243C144.914 -37.2781 145.881 -36.8462 145.079 -37.8628ZM176.673 -15.0847C177.274 -15.1404 179.238 -14.1478 181.038 -12.8778C182.932 -11.5418 183.531 -10.6744 182.459 -10.8191C180.266 -11.1156 175.085 -14.9348 176.673 -15.0847ZM180.336 -36.0447C188.679 -46.2847 192.427 -49.2137 194.989 -47.495C196.656 -46.3763 196.733 -46.0179 195.266 -46.2155C193.764 -46.4186 193.904 -44.9073 195.799 -40.4782C199.4 -32.0659 207.544 -17.5445 208.959 -17.0171C210.901 -16.2917 209.208 -35.4731 206.902 -40.3254C205.725 -42.8006 202.771 -46.4058 200.335 -48.339L195.907 -51.8537L203.588 -60.3156C207.812 -64.9691 212.09 -69.3684 213.094 -70.0889C214.097 -70.8103 214.473 -71.7472 213.93 -72.1705C213.386 -72.5938 208.847 -68.3744 203.843 -62.7918L194.745 -52.6446L189.497 -53.7821C181.281 -55.5643 159.402 -52.1941 159.861 -49.219C159.956 -48.603 164.316 -47.153 169.548 -45.9961C176.508 -44.4573 180.144 -44.4023 183.09 -45.7942C185.305 -46.8407 187.38 -47.5093 187.699 -47.2792C188.02 -47.05 185.938 -44.2385 183.073 -41.0308C180.208 -37.8248 177.438 -34.1856 176.916 -32.9431C176.396 -31.7009 177.934 -33.0977 180.336 -36.0447ZM175.777 -48.0831C180.452 -48.2676 183.818 -48.7769 183.256 -49.2147C182.695 -49.6516 178.211 -49.8976 173.293 -49.7614C168.375 -49.6242 164.297 -49.8618 164.232 -50.2888C164.166 -50.7148 168.42 -51.7222 173.684 -52.5269C186.197 -54.4378 197.503 -52.3609 188.36 -49.8314C186.377 -49.2823 184.252 -48.2074 183.638 -47.4426C182.59 -46.1352 169.363 -45.9002 167.935 -47.164C167.572 -47.4837 171.101 -47.8977 175.777 -48.0831ZM203.702 -29.4631C202.07 -29.6837 195.683 -41.5839 195.883 -44.0342C196.1 -46.6967 197.726 -44.298 200.438 -37.3138C201.896 -33.5575 203.461 -30.5192 203.917 -30.5623C204.691 -30.6353 202.064 -37.27 197.665 -46.3473L195.759 -50.2819L199.725 -47.2557C204.671 -43.4811 206.164 -40.5007 207.789 -31.1599C209.209 -22.9956 208.567 -20.2318 206.526 -25.7223C205.803 -27.6676 204.532 -29.3506 203.702 -29.4631Z" fill="#1ABC00" fill-opacity="0.43"/>
</svg>
