<svg width="138" height="106" viewBox="0 0 138 106" fill="none" xmlns="http://www.w3.org/2000/svg">
<path fill-rule="evenodd" clip-rule="evenodd" d="M129.593 63.6086C125.533 64.9242 121.717 66.6028 121.116 67.3378C120.513 68.0738 123.115 67.4236 126.898 65.8928C130.68 64.3621 133.572 63.671 133.325 64.3569C133.078 65.0428 131.105 66.3177 128.942 67.1897C124.292 69.0624 123.459 69.8387 125.711 70.1988C126.825 70.3763 126.6 70.9438 125.025 71.931C123.737 72.7382 122.924 73.5949 123.219 73.8359C123.811 74.3211 129.627 70.3808 135.19 65.7247C140.207 61.5265 138.274 60.7962 129.593 63.6086ZM114.428 59.4113C112.791 60.1711 108.717 62.9561 105.373 65.6002C100.107 69.7637 99.0408 71.1648 97.4096 76.0628C95.6157 81.4484 95.305 81.7928 90.9146 83.2744C84.876 85.3125 83.5539 82.8768 87.2169 76.4626C88.8044 73.6816 89.3414 71.9939 88.4087 72.7143C87.4768 73.4337 85.8682 76.0177 84.8338 78.4554C82.8353 83.1705 80.9292 84.4506 81.2728 80.847C81.3863 79.6518 81.1492 79.0645 80.7452 79.5394C80.3415 80.0161 80.1098 81.6526 80.2298 83.1774C80.4258 85.6433 79.8149 86.1048 74.6968 87.3568C70.1868 88.4603 69.2192 88.3402 70.2198 86.7982C70.923 85.7164 73.9281 81.2697 76.9 76.9152C79.8718 72.5607 81.9316 68.6952 81.4775 68.3234C78.5717 65.9445 66.348 78.5876 65.1055 85.2558C64.3939 89.082 64.0513 89.4034 59.6231 90.405L54.9008 91.4748L59.5448 83.9676C64.2849 76.308 64.5429 73.9335 60.3171 76.873C56.6793 79.4038 54.266 82.7252 52.7611 87.2728C51.5464 90.9418 50.8667 91.5349 46.848 92.4324C40.6353 93.8185 39.9065 95.1977 45.9984 94.0376C50.5278 93.1745 51.2898 93.4591 56.0157 97.7706C60.4163 101.784 60.7245 101.923 58.2246 98.7638L55.3184 95.0917L58.5478 97.3374L61.7771 99.5831L59.3383 96.3718C57.1142 93.4429 57.3071 93.4797 61.5313 96.7882C64.7583 99.3153 65.4909 100.315 63.9477 100.085C62.0503 99.8004 61.9088 100.048 62.9589 101.808C64.3674 104.172 67.7793 105.664 68.8313 104.379C69.7709 103.231 66.8747 99.4065 62.0685 95.4448C57.0204 91.2835 59.4352 89.479 64.9399 93.2992C67.1164 94.8088 69.2019 95.6722 69.5734 95.2185C69.9456 94.7638 70.9693 94.6751 71.8475 95.0199C72.7268 95.3656 72.2652 94.9575 70.8231 94.1129C66.2312 91.4268 66.9693 89.8402 73.372 88.6367C77.7897 87.8048 80.3613 88.1013 82.2886 89.6616C83.7783 90.8668 86.0486 91.9627 87.3341 92.0948C89.1364 92.2807 88.982 91.9967 86.6598 90.855L83.6481 89.3751L87.2106 89.4208C89.1711 89.4464 92.0835 89.6031 93.6826 89.769C95.2834 89.9348 94.1377 89.535 91.1371 88.8793C88.1365 88.2236 85.5152 87.5505 85.3109 87.3832C84.6737 86.8616 93.0454 83.5046 96.0801 83.0641C97.6704 82.8343 100.395 83.7816 102.133 85.1709L105.294 87.6963L103.171 83.7691C102.003 81.6093 101.472 78.8739 101.991 77.6909C102.797 75.8514 102.545 75.7846 100.243 77.2307C97.7373 78.8052 97.6018 78.75 98.2988 76.4355C99.5614 72.2437 103.283 68.314 108.844 65.3046L114.151 62.4324L109.268 69.5798L104.386 76.7281L111.346 68.5889C118.535 60.1847 119.601 57.0114 114.428 59.4113ZM90.5457 47.4861C82.3452 48.4136 72.1273 52.6905 66.2162 57.6702C61.1532 61.9336 60.2094 62.3375 60.4672 60.1221C62.302 44.4145 63.0186 29.46 61.9345 29.5358C61.1927 29.5877 61.3488 29.2011 62.2817 28.6784C64.0276 27.6972 65.058 23.3248 63.517 23.4325C62.4581 23.5066 55.6979 36.7455 54.0918 41.8934C52.0397 48.4672 52.6863 60.5286 55.3016 64.4942L57.769 68.2321L50.1774 78.2317L42.5865 88.2304L51.6663 77.1723C59.8703 67.1819 61.2134 66.0014 65.5808 64.9421C68.2393 64.2988 74.8378 61.4118 80.2425 58.5283C96.1798 50.0238 99.4928 46.4741 90.5457 47.4861ZM32.8931 2.67694C32.0856 4.42479 30.5527 6.93068 29.4858 8.24641C27.7561 10.3778 27.7994 10.5023 29.8821 9.3924C31.9055 8.31356 31.995 8.75938 30.5572 12.7091C29.6432 15.2184 29.1538 17.9623 29.4674 18.8049C29.7828 19.6474 30.1069 19.7075 30.1887 18.9369C30.4655 16.3311 34.3031 4.22932 34.7401 4.58702C34.9788 4.78242 34.8897 7.75535 34.5436 11.1929C34.1975 14.6304 34.2561 16.5253 34.6744 15.4014C36.0586 11.6864 36.612 1.34298 35.4761 0.413125C34.7671 -0.167304 33.823 0.65991 32.8931 2.67694ZM115.519 72.309C113.451 74.7129 109.944 77.142 107.328 77.981C100.985 80.0179 101.096 80.2905 108.545 80.9389C114.866 81.4901 119.402 83.3838 116.549 84.2798C115.737 84.5343 116.051 85.03 117.305 85.4717C118.901 86.0351 119.281 85.7792 118.795 84.4751C118.404 83.4311 119.201 83.69 120.762 85.1131L123.384 87.5046L119.471 87.4853C117.319 87.4749 113.387 87.348 110.735 87.2036C108.082 87.0592 106.997 87.225 108.326 87.5706C111.49 88.3955 128.62 88.8937 129.31 88.1796C130.112 87.3506 114.037 80.0552 111.758 80.2146C107.863 80.4869 108.113 78.8941 112.124 77.8884C119.684 75.9928 121.833 74.8243 120.208 73.4937C119.404 72.8354 118.319 72.7243 117.798 73.2469C117.278 73.7695 117.366 72.826 117.994 71.1509C118.944 68.6167 118.528 68.8111 115.519 72.309ZM88.8619 51.1979C89.6133 51.3179 90.112 51.5589 89.9692 51.7334C89.046 52.8611 70.9781 62.0366 68.0279 62.8774C63.3685 64.2025 61.8191 62.9484 65.5744 60.8911C67.1713 60.0155 68.7327 58.4693 69.046 57.4552C69.3592 56.4411 73.8685 53.9312 79.0663 51.8782C84.2648 49.8243 88.2883 48.7827 88.0069 49.5618C87.7258 50.3426 88.1104 51.0778 88.8619 51.1979ZM98.2607 57.5516C95.6923 57.7321 92.542 63.1092 92.9886 66.5524C93.4409 70.0402 93.4535 70.0393 95.3143 66.4662C98.8099 59.7573 99.5688 57.4601 98.2607 57.5516ZM78.376 53.9243C73.8114 55.8684 69.8435 57.7913 69.5571 58.1969C69.2707 58.6024 73.0422 57.3053 77.9397 55.3137C82.8363 53.3231 86.8043 51.4001 86.7587 51.0411C86.7112 50.6822 82.9396 51.9795 78.376 53.9243ZM60.7517 44.5894C60.0562 51.6831 59.1744 59.0208 58.7911 60.8962L58.0933 64.3053L57.4591 59.8058C57.1101 57.3308 57.2934 51.4323 57.8646 46.6984C58.4377 41.9643 58.4302 38.6719 57.8495 39.3811C56.6025 40.9045 55.3114 53.779 56.0674 57.1476C56.3572 58.4341 56.2304 59.9303 55.7879 60.4708C54.5291 62.0084 53.5892 54.915 54.1933 48.4406C54.4935 45.2202 55.8721 40.9753 57.2578 39.0082C58.6428 37.042 60.0628 34.412 60.413 33.167C61.8244 28.1497 61.9493 32.3613 60.7517 44.5894ZM41.8812 24.0222C36.6466 24.7315 35.4992 25.448 31.6717 30.3917L27.3603 35.9614L32.4474 31.0124C35.5179 28.0252 38.7859 25.975 40.6924 25.8417C43.7081 25.6308 43.7035 25.7498 40.5819 28.4961C38.2164 30.5767 37.9918 31.0471 39.7684 30.1976L42.2233 29.0231L41.1874 31.3593C40.6182 32.6448 42.0474 31.487 44.366 28.787C46.6845 26.0869 48.4004 23.7309 48.1799 23.5504C47.9594 23.3699 45.1248 23.5824 41.8812 24.0222ZM86.1545 68.9679C83.7584 71.8226 81.7176 75.0191 81.6189 76.0703C81.5186 77.1378 83.2531 75.3926 85.5443 72.1192C91.1414 64.1248 91.4174 62.698 86.1545 68.9679ZM110.434 83.3593C107.383 83.2401 107.381 83.2672 110.383 84.0584C112.104 84.5115 113.674 84.6822 113.873 84.4391C114.47 83.7098 113.772 83.4907 110.434 83.3593ZM30.2331 23.0984C27.6521 24.8624 27.6394 24.8553 26.8246 21.1376C26.374 19.0859 26.2121 20.0679 26.4649 23.3206C26.9689 29.8137 25.65 38.5417 24.3291 37.4603C23.8699 37.0844 23.3863 35.948 23.255 34.9363C23.0908 33.6698 22.6431 33.5501 21.819 34.5567C21.1611 35.3604 21.2295 36.5149 21.9719 37.1227C24.2182 38.9617 22.0481 40.1083 19.244 38.5627C17.803 37.7683 18.3864 38.37 20.5402 39.8992C23.619 42.0853 24.5644 43.6872 24.9644 47.3917C25.6149 53.4251 24.4804 54.7222 20.6044 52.377C18.1057 50.8648 18.2173 51.1329 21.1741 53.7445C26.3212 58.2926 24.259 59.6932 18.8883 55.2965C13.7594 51.0977 9.5206 45.0419 9.03932 41.2263C8.73894 38.8405 8.83875 38.7599 9.94456 40.4899C10.6276 41.5602 12.729 44.1004 14.6139 46.1354L18.0407 49.834L15.1347 45.46C13.5355 43.0554 12.8347 41.0472 13.5788 40.9988C14.3219 40.9496 13.2448 39.5312 11.1845 37.8446C7.81847 35.089 7.39453 35.0476 6.98572 37.4371C6.73581 38.8979 7.84291 42.7641 9.44682 46.0276C11.8404 50.8975 13.5825 52.814 19.1762 56.7278C25.612 61.2307 26.0197 61.7746 26.5336 66.5244L27.0763 71.5525L19.4193 65.5596L11.7632 59.5657L17.8621 65.5282C22.0219 69.5944 23.0127 71.0089 20.9776 69.9766C18.5014 68.7216 18.5625 68.8863 21.3314 70.9476C24.9395 73.6324 23.9806 74.7707 19.4002 73.2405C17.4109 72.5752 17.0296 72.7088 18.1353 73.6857C19.0069 74.4534 21.7084 75.1794 24.1382 75.2962C28.5548 75.5078 28.5568 75.5095 29.0182 79.0667C29.4795 82.6239 29.4777 82.624 24.6913 79.7772C22.0573 78.2116 19.9544 77.3322 20.0182 77.8239C20.0809 78.3147 22.3396 79.8581 25.0373 81.253C29.5967 83.6115 30.8526 85.9547 26.9643 84.8461C26.0228 84.5785 26.4715 84.957 27.9632 85.6894C29.455 86.4218 30.4832 87.254 30.2491 87.54C29.2361 88.7774 21.9592 86.8164 16.842 83.928L11.2818 80.7884L16.3697 84.4122C19.6087 86.7183 23.6732 88.3215 27.5505 88.8224C36.3466 89.9572 38.8065 93.4978 34.6146 98.9918L31.5166 103.05L36.1256 98.8628C40.9455 94.4816 43.1131 91.0497 41.7588 89.941C41.3198 89.5817 40.456 90.4285 39.8405 91.8241C38.9367 93.8752 38.4852 93.9625 37.4815 92.2811C36.7997 91.1371 35.9388 89.9498 35.5682 89.6432C35.1985 89.3374 37.8521 85.3863 41.4638 80.8631C49.0159 71.409 49.8452 67.2987 43.3446 71.5395C41.039 73.0433 37.9352 76.1434 36.4469 78.4278C34.1005 82.0285 34.3357 81.9042 38.2183 77.4897C43.7783 71.1685 44.1968 74.549 38.6935 81.3209C35.252 85.5537 34.9499 85.6566 32.6682 83.3572C31.3474 82.026 30.0541 79.3097 29.797 77.3208C29.3566 73.932 29.5436 73.652 32.7814 72.8397C34.6814 72.3635 36.9057 71.0702 37.7271 69.9658C38.6637 68.7041 37.7997 68.8661 35.3983 70.4045C29.9894 73.8689 32.0874 70.033 39.5464 62.8241C43.8363 58.6777 45.2341 57.8286 44.6884 59.7001L43.9398 62.2716L45.4713 60.341C46.3135 59.2791 47.5557 57.0974 48.2309 55.4927C49.4438 52.612 49.3929 52.5958 44.1733 54.236C39.6538 55.6565 38.161 56.9022 33.8597 62.8496C31.0941 66.6756 28.5542 69.5781 28.2153 69.3007C27.8765 69.0234 27.4126 66.8827 27.1834 64.544C26.8699 61.353 27.4642 59.7523 29.5622 58.1326C37.8746 51.7178 37.535 52.0336 34.8407 53.2304L32.319 54.3503L33.6886 52.2873C34.6636 50.8198 34.16 50.8676 31.9454 52.4523C29.5133 54.1933 29.926 53.2909 33.8308 48.3292C37.0899 44.1893 39.8595 41.747 41.7902 41.3118C45.308 40.5186 45.0931 41.9985 40.7429 48.5092C38.7184 51.5393 39.269 51.1493 42.8296 47.0332C49.1282 39.75 49.4993 36.9443 43.9568 38.5208C41.0885 39.3379 37.9123 41.8454 33.3512 46.897L26.8416 54.1078L26.0725 49.0281C25.6486 46.2339 25.9064 43.3418 26.6455 42.5999C27.3839 41.859 28.7695 40.1911 29.7234 38.8958C31.1423 36.9686 31.0257 36.5293 29.0863 36.486C26.0889 36.4188 26.5895 31.9279 30.2952 25.6267C32.5172 21.8478 32.5102 21.5426 30.2331 23.0984ZM90.9236 73.6682C89.6562 75.2576 89.4503 75.9713 90.4666 75.254C91.4828 74.5368 92.5192 73.2358 92.7704 72.3635C93.0216 71.4913 92.191 72.0787 90.9236 73.6682ZM12.9185 13.7896C12.4893 14.3139 12.5791 15.1038 13.1182 15.5452C13.6562 15.9857 13.393 16.7302 12.5316 17.1985C11.6702 17.6667 11.3056 19.3027 11.7186 20.8349C12.3625 23.2137 12.4481 23.2743 12.3021 21.2489C11.9775 16.7321 13.3413 17.433 15.0489 22.6601C15.9919 25.5465 17.663 28.2265 18.7611 28.6144C20.2796 29.149 20.602 28.8954 20.103 27.5571C19.7405 26.5884 18.5564 25.4823 17.4726 25.0997C16.2704 24.676 16.0884 24.2196 17.0056 23.9308C17.8447 23.6672 17.6432 21.2637 16.5534 18.5135C14.325 12.8887 14.0009 12.4674 12.9185 13.7896ZM33.7688 34.043C32.6958 35.3538 32.486 36.0784 33.3031 35.6519C34.1204 35.2272 34.9983 34.1548 35.2541 33.2687C35.5101 32.3845 34.8419 32.7323 33.7688 34.043ZM87.6053 79.7086C86.5323 81.0193 86.3225 81.744 87.1396 81.3175C87.9569 80.8928 88.8349 79.8204 89.0906 78.9343C89.3466 78.05 88.6784 78.3978 87.6053 79.7086ZM98.405 87.9066C95.568 86.8593 92.3963 86.0907 91.3563 86.1993C90.1532 86.3257 90.6503 86.68 92.7222 87.1742C94.5143 87.6016 96.3742 88.5797 96.8554 89.3477C97.3365 90.1157 99.5285 91.1874 101.727 91.7293C107.984 93.2709 106.629 94.5788 99.7023 93.6845C96.2636 93.2401 93.3019 93.0589 93.12 93.281C92.6253 93.8854 100.226 95.0939 105.825 95.301L110.744 95.4829L107.153 92.6468C105.178 91.0872 101.241 88.9548 98.405 87.9066ZM39.8249 45.3695C38.3226 47.2045 37.9168 48.1253 38.9214 47.4161C39.927 46.7077 41.1569 45.2053 41.6528 44.0796C42.1497 42.9547 41.3272 43.5344 39.8249 45.3695ZM75.4958 74.5716C74.8295 74.7808 74.5272 75.6 74.8226 76.3927C75.4207 77.9937 71.194 83.6519 68.1708 85.2958C64.7237 87.1707 66.2249 82.8669 71.1134 76.8605C73.9793 73.3412 75.8283 71.8378 76.1691 72.7504C76.4644 73.5431 76.1621 74.3623 75.4958 74.5716ZM11.244 24.9824C11.0646 26.6729 13.145 32.0842 13.71 31.394C13.8903 31.1738 13.4476 29.2797 12.7264 27.1831C12.0044 25.0875 11.3371 24.097 11.244 24.9824ZM18.4455 31.249C18.5985 32.4633 19.1751 33.4241 19.726 33.3847C20.2779 33.3461 20.1528 32.3537 19.4489 31.1789C18.4306 29.4823 18.2254 29.4957 18.4455 31.249ZM71.4934 78.5919C70.6328 79.7422 70.6875 80.1643 71.6322 79.6687C72.4879 79.2197 73.125 78.3672 73.0483 77.7759C72.9716 77.1845 72.2725 77.5515 71.4934 78.5919ZM37.0537 63.0029L32.9854 66.041L36.136 61.9841C37.8698 59.7526 40.2682 57.4173 41.4667 56.7951C43.5071 55.7349 43.566 55.7991 42.3845 57.814C41.6899 58.9967 39.2915 61.3321 37.0537 63.0029ZM41.9385 65.4096C40.671 66.9991 40.4652 67.7127 41.4814 66.9955C42.4977 66.2782 43.534 64.9773 43.7853 64.105C44.0365 63.2328 43.2059 63.8202 41.9385 65.4096ZM18.1465 46.2236C18.6502 47.0961 19.5512 47.7764 20.1461 47.7348C20.741 47.6932 20.3284 46.9797 19.2288 46.148C18.013 45.2291 17.5883 45.2588 18.1465 46.2236ZM76.9686 94.439C78.1666 95.813 79.2521 97.6379 79.3806 98.4962C79.5127 99.3749 78.7162 98.9983 77.5552 97.6308C75.7443 95.4971 75.657 95.5067 76.8227 97.7124C78.0298 99.9935 85.1794 102.981 86.2642 101.656C86.4679 101.407 83.9699 99.1199 80.7123 96.5724C77.4546 94.0249 75.7707 93.0651 76.9686 94.439ZM109.028 125.391C101.88 126.362 95.8733 129.128 92.7993 132.869C91.5944 134.334 88.4151 135.841 85.6775 136.244C82.4024 136.727 81.4359 136.531 82.8165 135.668C83.9639 134.951 85.3251 133.2 85.841 131.775C86.7459 129.279 86.6834 129.25 84.0966 130.97C81.9977 132.366 82.1721 131.814 84.8959 128.44C86.9382 125.91 88.1047 125.048 87.7165 126.356C87.163 128.223 87.6481 128.303 90.6889 126.85C92.6878 125.896 95.1466 123.796 96.1533 122.183C97.9328 119.335 97.8192 119.316 92.116 121.549C86.9917 123.556 85.6298 124.758 81.3618 131.031C76.7462 137.817 76.2037 138.242 71.606 138.662L66.7367 139.107L67.2333 135.903C67.649 133.218 67.4941 132.972 66.2815 134.391C65.4858 135.324 64.5962 135.449 64.3052 134.669C63.6358 132.875 62.9238 133.728 62.3639 136.995C62.0383 138.897 60.935 139.737 58.0301 140.294C55.8865 140.704 54.1839 141.441 54.2472 141.929C54.4782 143.71 50.9326 139.527 49.6803 136.542C48.2416 133.11 47.6804 133.3 46.9688 137.46C46.5634 139.827 45.6318 140.381 41.4113 140.768C34.9641 141.357 34.4862 140.893 37.8051 137.256C39.4808 135.419 39.6228 135.023 38.1809 136.215C35.4354 138.481 31.2972 139.015 30.9582 137.146C30.8265 136.424 30.3629 136.906 29.9273 138.218C29.3957 139.821 27.8026 140.739 25.0783 141.015C20.9881 141.43 16.6617 139.216 18.1078 137.45C18.537 136.926 18.4442 136.133 17.9021 135.689C17.2821 135.182 16.5662 135.998 15.9763 137.891C15.1874 140.417 14.5051 140.747 11.7196 139.944C8.82918 139.112 8.58464 138.732 9.81903 136.999C10.5991 135.904 11.4739 134.487 11.7646 133.849C12.0553 133.211 13.9914 130.498 16.0677 127.819C18.1441 125.14 19.5025 122.67 19.0848 122.328C18.667 121.986 15.9199 125.111 12.9789 129.271C10.0378 133.431 7.2755 136.543 6.84058 136.187C4.24021 134.058 1.47426 126.812 2.68636 125.304C3.48965 124.305 3.42185 123.733 2.52711 123.951C0.246762 124.506 -1.95228 122.188 -1.08035 120.149C-0.40823 118.577 -0.334378 118.638 -0.420881 120.689C-0.601728 124.969 0.516041 121.835 1.40327 115.578C2.53967 107.562 3.7659 106.108 4.06575 112.421C4.19508 115.154 4.53065 116.145 4.81055 114.623C5.09148 113.101 5.23213 109.634 5.12404 106.919L4.9286 101.982L1.79021 105.806C0.0640395 107.908 -1.74017 111.932 -2.22113 114.748C-2.85723 118.48 -3.53063 119.721 -4.7059 119.331C-5.61288 119.029 -5.57035 119.462 -4.60945 120.319C-2.34286 122.342 -3.93999 124.177 -6.29155 122.252C-7.29791 121.428 -9.52006 120.661 -11.23 120.546C-14.8504 120.305 -14.02 121.466 -9.92031 122.378C-8.3705 122.722 -6.36968 124.089 -5.47258 125.416C-3.98213 127.623 -4.33631 127.744 -9.66136 126.843C-12.9768 126.283 -16.9858 124.591 -18.98 122.912C-22.0896 120.294 -21.5892 120.339 -14.4882 123.307C-10.0931 125.144 -6.54508 126.278 -6.60377 125.825C-6.66221 125.375 -8.31291 124.434 -10.2711 123.737C-12.2302 123.039 -14.0711 121.831 -14.3631 121.051C-14.9492 119.481 -24.3165 117.05 -25.2732 118.219C-25.6049 118.624 -23.8061 120.651 -21.2746 122.723C-16.4086 126.707 -10.2499 128.773 -3.73349 128.607C-0.0220822 128.512 0.391152 128.791 3.33478 133.385L6.46094 138.264L-2.55296 149.859C-7.62766 156.388 -12.3194 161.506 -13.2906 161.574C-15.3655 161.719 -16.7394 156.918 -17.3008 147.557C-17.682 141.223 -16.8399 141.49 -15.2283 148.215C-14.5134 151.196 -14.4708 151.212 -14.4787 148.482C-14.487 145.838 -17.0445 138.924 -18.4362 137.784C-18.7528 137.525 -19.4637 139.662 -20.0162 142.533C-21.1659 148.516 -19.1052 162.711 -16.8143 164.586C-15.6765 165.518 -16.1961 167.067 -18.8049 170.52L-22.3358 175.192L-18.4447 171.213C-15.3925 168.091 -13.3396 167.197 -8.92319 167.066C-5.82609 166.975 -4.38436 166.792 -5.71847 166.661C-11.2474 166.119 -11.4015 165.851 -7.58586 163.437C-5.54409 162.144 -3.63529 161.408 -3.34486 161.8C-3.05442 162.192 -0.680129 162.292 1.9318 162.021C4.54371 161.751 6.13758 161.075 5.47527 160.52C4.71339 159.88 5.0741 159.629 6.45702 159.836C9.1287 160.236 10.0635 162.236 7.98596 163.107C7.14997 163.457 7.86567 163.497 9.57426 163.197C15.2707 162.194 15.0549 160.718 9.00383 159.301C4.38402 158.219 -1.40947 158.808 -6.72951 160.901C-10.5314 162.397 -10.3542 162.062 -1.73051 151.46L7.21082 140.47L11.6754 141.345C15.1178 142.02 16.4135 142.838 17.3345 144.913C17.9922 146.394 18.9977 147.574 19.5701 147.533C20.1434 147.493 20.0802 147.025 19.4318 146.495C18.7825 145.963 18.6027 145.099 19.0319 144.575C19.4611 144.051 21.205 144.762 22.9062 146.155C24.7116 147.633 25.4148 148.872 24.5947 149.129C22.9748 149.639 24.7994 151.209 28.4941 152.484C32.328 153.807 30.5602 150.298 25.1693 145.885L20.7363 142.256L25.2227 142.442C28.6613 142.585 30.7281 143.577 34.085 146.694C37.9671 150.299 38.1244 150.354 35.4807 147.181C32.8116 143.978 32.7897 143.656 35.2716 144.118C36.7974 144.402 38.8677 145.588 39.8729 146.751C41.6347 148.792 41.6527 148.779 40.3762 146.36C39.6484 144.979 38.5588 143.757 37.9553 143.642C35.5096 143.18 38.2105 142.103 42.1295 141.977C44.4325 141.904 48.1993 142.899 50.5011 144.189C52.8019 145.479 54.7518 145.91 54.8333 145.144C54.9175 144.343 56.8046 145.295 59.2838 147.388C62.3174 149.951 62.8361 150.764 61.0398 150.144C57.2919 148.849 58.9453 151.951 63.2592 154.306C65.2526 155.393 67.1453 155.962 67.4676 155.568C68.2363 154.629 63.7508 149.341 58.631 145.15C54.6187 141.865 54.6075 141.806 57.9465 141.405C60.3126 141.121 62.775 142.11 66.0884 144.676C70.805 148.33 70.8168 148.33 67.8734 144.755C65.5008 141.873 65.4359 141.54 67.5518 143.084C69.4713 144.487 70.002 144.481 69.49 143.063C68.8947 141.415 69.0657 141.206 70.5873 141.723C72.0587 142.222 72.1355 142.103 71.0102 141.08C70.0314 140.19 70.8862 139.699 73.9574 139.387C77.0948 139.069 79.4428 139.845 82.4979 142.21C86.5155 145.319 86.598 145.322 84.2628 142.275L81.8131 139.077L85.7861 141.097C88.3451 142.397 89.5252 142.491 89.1026 141.358C88.7414 140.392 87.5871 139.299 86.5363 138.928C84.9751 138.378 85.1294 138.061 87.3816 137.192C88.896 136.607 91.2445 136.592 92.5997 137.157C95.4049 138.328 104.467 137.203 105.84 135.512C106.342 134.896 104.709 135.047 102.212 135.849C94.3935 138.358 95.4938 135.988 103.645 132.76C108.5 130.837 111.355 130.337 111.254 131.426C111.165 132.384 112.416 131.565 114.035 129.606C115.652 127.647 116.569 125.71 116.071 125.302C115.572 124.894 112.402 124.934 109.028 125.391ZM70.4233 91.0996C69.6276 91.3493 69.9021 91.8415 71.0683 92.2534C73.3391 93.0536 74.2193 92.6325 72.7649 91.4418C72.2409 91.0129 71.1877 90.8592 70.4233 91.0996ZM55.5541 84.8847C54.5378 85.6019 54.7436 84.8883 56.0111 83.2989C57.2785 81.7094 58.1091 81.122 57.8579 81.9942C57.6066 82.8665 56.5703 84.1675 55.5541 84.8847ZM103.503 130.98C93.8618 134.788 91.9088 134.66 97.2264 130.568C99.9299 128.488 110.913 125.856 112.267 126.965C112.518 127.17 108.574 128.977 103.503 130.98ZM72.1121 97.2761C70.3356 96.7245 69.9209 96.8802 70.8931 97.7334C71.7034 98.4461 73.3903 99.1711 74.6407 99.3461C77.4112 99.7339 75.8142 98.4264 72.1121 97.2761ZM-24.3899 28.4103C-28.1249 32.9727 -28.9443 42.1078 -26.8457 55.8005C-25.7201 63.1416 -25.3954 68.2731 -26.1237 67.2024C-28.8625 63.1771 -43.0846 48.8609 -44.2628 48.9424C-46.4166 49.093 -43.5948 59.6488 -40.1559 64.3046C-38.3313 66.7744 -36.4858 68.7708 -36.055 68.7397C-35.6239 68.7105 -36.8841 66.5707 -38.8555 63.9872C-40.8268 61.4037 -42.4836 58.0604 -42.5382 56.5589C-42.6262 54.1034 -42.4372 54.1037 -40.6695 56.5666C-39.0925 58.7652 -38.8264 58.8445 -39.3251 56.9714C-39.8035 55.1724 -38.5642 55.98 -33.9295 60.4875C-27.8195 66.4304 -25.7844 70.3206 -28.3616 71.1308C-29.3214 71.4325 -28.9367 71.7507 -27.1781 72.1077C-25.1279 72.5251 -24.0593 74.2532 -22.172 80.2038L-19.7732 87.7705L-21.2997 79.7635C-22.4782 73.5765 -22.3205 71.44 -20.6014 70.3636C-19.1232 69.437 -18.9332 68.8809 -20.0327 68.7052C-21.1332 68.5287 -20.6121 67.0256 -18.475 64.2088C-15.9564 60.8907 -15.862 60.5175 -18.0371 62.4832C-19.5624 63.8615 -21.5532 65.0531 -22.4618 65.1292C-24.8485 65.3311 -25.8786 57.054 -23.7856 54.4973C-21.8431 52.1246 -20.4536 37.0539 -21.551 30.2725L-22.271 25.8221L-24.3899 28.4103ZM3.74022 55.1773C1.74608 54.2167 1.64234 54.5952 2.89658 58.2713C3.68269 60.5755 5.02882 62.9942 5.88744 63.6478C6.74606 64.3013 6.69358 63.4368 5.77033 61.7273C4.38683 59.1665 4.46092 58.8036 6.19019 59.6668C7.34346 60.2432 8.61418 60.317 9.0114 59.8318C9.76137 58.9157 7.66933 57.0677 3.74022 55.1773ZM-22.7939 44.9186C-23.1386 48.8063 -23.6209 52.2327 -23.8675 52.534C-24.4481 53.2432 -26.3669 51.1422 -27.1964 48.8869C-28.259 45.9981 -26.3095 34.4508 -24.6703 33.9363C-22.5526 33.2706 -22.0322 36.3141 -22.7939 44.9186ZM-24.7769 35.0734C-25.1491 35.5281 -25.4751 37.2738 -25.5025 38.9519C-25.5492 41.8957 -25.5085 41.9099 -24.3588 39.3706C-23.1729 36.7479 -23.4884 33.4996 -24.7769 35.0734ZM-12.0692 48.6562C-14.0461 49.6616 -16.8422 52.2971 -18.2843 54.5126L-20.9069 58.5416L-17.3953 54.5988C-14.6942 51.5655 -13.2763 50.8777 -11.2559 51.6163C-8.96008 52.4561 -8.61816 52.2138 -8.55238 49.7026C-8.4822 47.0025 -8.69559 46.9392 -12.0692 48.6562ZM73.5914 122.317C70.5402 124.171 67.2596 127.037 66.2993 128.686C64.7288 131.383 64.8515 131.367 67.5051 128.532C69.1308 126.798 71.5528 124.84 72.8897 124.183C74.9055 123.192 74.8835 123.58 72.7598 126.465C70.3895 129.687 70.4036 129.816 72.9615 128.223C76.8502 125.8 81.1756 120.618 80.066 119.709C79.5553 119.291 76.6408 120.464 73.5914 122.317ZM63.1871 116.442C56.2076 120.253 50.6889 125.624 49.5282 129.737C48.7754 132.402 49.1359 132.135 51.5813 128.217C53.2467 125.549 56.6737 122.069 59.3948 120.284L64.242 117.104L61.4663 121.2C59.9395 123.453 58.779 126.034 58.8879 126.937C59.0512 128.294 68.6636 115.452 68.6429 113.905C68.6396 113.664 66.1842 114.806 63.1871 116.442ZM9.07469 67.4925C10.1411 68.7445 12.1882 70.4203 13.6261 71.2185C15.0647 72.0158 14.1924 70.9911 11.6891 68.9418C9.1858 66.8925 8.00906 66.2396 9.07469 67.4925ZM11.2665 73.7067C7.00415 72.112 6.86875 72.1619 8.07814 74.8858C9.63519 78.3943 10.5545 79.2234 10.7589 77.3002C10.853 76.4156 12.6616 77.2211 15.3271 79.3363C17.7546 81.2615 20.9491 83.2176 22.4261 83.6832C24.1631 84.2296 23.0251 83.0671 19.2077 80.3925C14.9746 77.427 14.0847 76.4692 16.0657 77.0083C20.1086 78.1096 16.6165 75.7062 11.2665 73.7067ZM-26.3757 45.2185C-26.6312 46.7129 -26.5791 48.6344 -26.2593 49.4901C-25.9403 50.3467 -25.5396 49.2815 -25.3693 47.1235C-25.01 42.5536 -25.6965 41.2544 -26.3757 45.2185ZM94.695 142.662C95.2903 144.309 95.1084 144.532 93.5314 144.083C92.5036 143.791 93.2123 144.446 95.1044 145.539C98.3603 147.418 98.3758 147.517 95.3997 147.364C91.1038 147.141 92.7863 148.278 97.7303 148.939L101.739 149.474L99.8215 146.828C96.8608 142.744 93.8373 140.286 94.695 142.662ZM-14.8726 56.3169C-15.9457 57.6276 -16.1554 58.3523 -15.3384 57.9257C-14.521 57.501 -13.6431 56.4286 -13.3873 55.5426C-13.1314 54.6583 -13.7996 55.0061 -14.8726 56.3169ZM-13.3992 60.7075C-14.4722 62.0182 -14.682 62.7428 -13.8649 62.3163C-13.0476 61.8916 -12.1696 60.8192 -11.9139 59.9331C-11.6579 59.0489 -12.3261 59.3967 -13.3992 60.7075ZM39.6777 108.873C34.9914 109.084 32.1586 109.903 31.7716 111.158C31.4383 112.234 30.7264 112.753 30.1883 112.312C29.6492 111.871 28.5214 112.202 27.6837 113.048C26.8449 113.893 27.6026 112.185 29.3674 109.252L32.5756 103.917L27.9755 109.212C21.4287 116.749 18.5823 115.429 18.8108 104.964C18.8724 102.204 18.2919 99.9586 17.5237 99.9746C16.7537 99.9907 16.9513 99.7163 17.961 99.3662C19.3329 98.8892 20.1021 100.721 21.0167 106.644L22.2367 114.559L22.2472 108.199C22.2605 99.9787 21.0774 92.9058 19.7038 93.001C15.8112 93.274 14.3263 112.064 17.9624 115.041C18.99 115.882 19.6789 117.7 19.4955 119.082C19.25 120.925 19.4666 121.236 20.3124 120.251C20.9443 119.512 23.3088 118.72 25.5637 118.491C29.3284 118.11 29.4524 118 27.0784 117.163C24.5272 116.264 24.5477 116.235 28.6263 115.074C30.9011 114.427 34.8281 113.2 37.3538 112.348C39.8794 111.495 42.1269 111.28 42.3471 111.869C42.5663 112.458 44.1261 112.3 45.8102 111.518C50.264 109.452 48.0501 108.497 39.6777 108.873ZM71.2566 132.532C70.396 133.682 70.4508 134.104 71.3954 133.608C72.2512 133.159 72.8883 132.307 72.8115 131.715C72.7349 131.124 72.0357 131.491 71.2566 132.532ZM-3.91838 72.5656C-5.20884 73.1968 -8.30606 76.3405 -10.8015 79.5517C-14.2405 83.9775 -15.2013 84.7322 -14.7717 82.6701C-14.3496 80.6482 -14.912 81.1288 -16.9593 84.5397C-19.2412 88.3381 -20.3203 89.128 -23.2243 89.1261C-25.1537 89.1244 -26.6649 89.6435 -26.5825 90.2795C-26.4992 90.9144 -27.3327 90.7543 -28.4323 89.9226C-29.5329 89.09 -30.0461 89.0854 -29.5732 89.9088C-29.1 90.734 -26.5631 91.6136 -23.9333 91.8638C-21.2477 92.12 -18.6521 93.159 -18.0106 94.2366C-17.0367 95.8698 -16.881 95.7664 -16.9616 93.5351C-17.0921 89.908 -6.36952 74.5362 -5.14268 76.593C-4.15027 78.2572 -3.41833 77.5572 -2.3122 73.8805C-1.58238 71.4496 -1.60265 71.433 -3.91838 72.5656ZM36.7601 111.472C34.5426 112.364 32.6705 112.645 32.5992 112.095C32.4663 111.071 39.3651 108.68 40.2834 109.431C40.5626 109.66 38.9776 110.579 36.7601 111.472ZM49.3561 117.655C47.2792 118.44 40.5635 128.767 41.587 129.605C42.6531 130.477 44.9289 127.747 48.2913 121.56C49.6087 119.135 50.0888 117.379 49.3561 117.655ZM35.1998 114.929C32.2526 115.96 30.0449 116.971 30.2947 117.176C30.9916 117.746 40.7466 114.501 40.6468 113.731C40.5985 113.359 38.1471 113.898 35.1998 114.929ZM42.4399 120.057C40.7966 120.958 37.8666 123.753 35.9283 126.27L32.4046 130.844L37.4604 126.226C40.2409 123.686 43.459 121.125 44.6113 120.537C45.7625 119.948 46.419 119.231 46.067 118.943C45.716 118.655 44.0842 119.157 42.4399 120.057ZM76.5578 145.496C78.4755 147.693 79.2544 148.946 78.2873 148.278C76.6272 147.132 70.9269 147.255 72.3338 148.407C72.6979 148.705 75.1262 149.632 77.7299 150.469C83.9295 152.461 84.0235 149.958 77.9263 145.25L73.0709 141.501L76.5578 145.496ZM-11.5003 75.8574C-12.5441 76.4247 -13.78 77.4142 -14.2474 78.0554C-14.713 78.6963 -13.817 78.551 -12.2561 77.7319C-10.6945 76.9119 -9.45951 75.9232 -9.5101 75.5331C-9.5607 75.143 -10.4567 75.2883 -11.5003 75.8574ZM-2.33693 87.3872C-5.45932 89.8909 -10.0658 98.2314 -10.8481 102.802C-11.3602 105.797 -11.9487 105.566 -13.8977 101.608C-15.2366 98.8895 -15.2579 98.8991 -14.5337 101.883C-14.1207 103.583 -13.343 105.418 -12.805 105.962C-12.2661 106.507 -13.4599 106.162 -15.4565 105.196L-19.0862 103.439L-16.208 106.114L-13.3291 108.788L-18.8521 107.28C-21.8896 106.451 -23.7849 106.273 -23.0644 106.887C-22.344 107.499 -20.4328 108.295 -18.8177 108.654C-16.5771 109.152 -16.2812 109.433 -17.5693 109.838C-20.1596 110.652 -27.8299 107.818 -31.4686 104.702L-34.7281 101.911L-29.6023 103.904C-25.0982 105.655 -24.9266 105.633 -28.1859 103.721C-33.2977 100.721 -32.0303 100.023 -25.1095 102.027C-21.9178 102.951 -19.9248 103.184 -20.6821 102.545C-21.4393 101.906 -25.7004 100.677 -30.1488 99.8152C-36.9845 98.4894 -38.028 98.6064 -36.8785 100.562C-33.0621 107.061 -23.0778 111.837 -14.2078 111.409C-10.0986 111.209 -8.79436 110.433 -5.53898 106.25C-2.37366 102.182 -2.23206 101.726 -4.72702 103.631C-7.69162 105.894 -7.7018 105.836 -5.30928 100.458C-2.159 93.381 -1.44519 92.6741 -1.958 97.1406C-2.46057 101.533 -1.91136 100.309 0.282782 92.1604C1.19303 88.7787 1.65452 85.778 1.30815 85.4913C0.96178 85.2046 -0.67774 86.0579 -2.33693 87.3872ZM53.8092 135.63C52.1034 137.736 51.7004 138.651 52.9129 137.663C54.1255 136.675 55.5212 134.952 56.0144 133.834C56.5076 132.715 55.5149 133.523 53.8092 135.63ZM17.7137 107.274C17.5496 110.811 17.2851 111.442 16.8029 109.445C16.1173 106.606 16.5978 101.186 17.4727 101.902C17.7326 102.115 17.8407 104.531 17.7137 107.274ZM-37.3686 61.2878C-36.5923 62.3245 -34.9983 63.6294 -33.8286 64.1858C-32.6598 64.743 -33.295 63.895 -35.242 62.3011C-37.189 60.7072 -38.1457 60.2519 -37.3686 61.2878ZM-2.13497 92.8481C-3.03269 93.3359 -4.78256 96.0224 -6.02455 98.8188C-10.3327 108.512 -10.4715 108.724 -9.91296 104.757C-9.07805 98.8427 -4.92143 91.0477 -2.77131 91.3638C-0.312391 91.7257 -0.267096 91.8314 -2.13497 92.8481ZM27.9497 123.701C26.3208 123.967 25.0082 125.404 23.5253 128.538C21.4546 132.912 21.4636 132.94 23.99 130.058C25.4043 128.444 27.2257 127.389 28.0372 127.715C29.0605 128.126 29.6271 127.545 29.889 125.814C30.2122 123.677 29.9333 123.374 27.9497 123.701ZM51.9658 147.188C53.0375 148.445 54.8651 149.927 56.0271 150.481C57.1892 151.034 56.3125 150.004 54.0788 148.193C51.845 146.382 50.8941 145.93 51.9658 147.188ZM-27.6936 84.0329C-30.2922 82.9563 -30.503 83.0322 -28.89 84.4625C-27.8133 85.4172 -25.9097 86.3419 -24.6594 86.5169C-22.0039 86.8884 -23.2338 85.8816 -27.6936 84.0329ZM46.0896 145.571C44.7702 144.913 42.9695 144.405 42.0885 144.443C41.2075 144.482 42.6432 145.513 45.2805 146.735C52.3867 150.029 53.0649 149.054 46.0896 145.571ZM-36.0675 79.8174C-37.1166 79.3964 -38.8307 78.7047 -39.8774 78.2809C-43.0208 77.0052 -39.4222 83.8966 -35.2722 87.0998L-31.6487 89.8958L-35.1356 85.9012L-38.6225 81.9067L-34.3412 84.9308L-30.0598 87.9549L-33.2455 84.6242C-35.9301 81.8182 -36.0127 81.4321 -33.7723 82.1724C-30.8624 83.1328 -32.8271 81.1168 -36.0675 79.8174ZM19.9906 129.438C18.4884 131.273 18.0825 132.194 19.0872 131.485C20.0928 130.777 21.3227 129.274 21.8186 128.148C22.3155 127.024 21.4929 127.603 19.9906 129.438ZM50.6437 152.063C50.2953 153.19 49.0869 153.492 47.527 152.841C46.1248 152.255 45.0214 152.119 45.0765 152.537C45.1298 152.954 47.7121 154.045 50.8149 154.959C56.7303 156.703 57.8419 155.649 53.6799 152.242C51.9403 150.818 51.044 150.765 50.6437 152.063ZM0.264214 114.881C-0.160711 117.161 -0.735852 118.839 -1.01399 118.611C-1.29214 118.384 -1.17215 116.333 -0.747221 114.053C-0.32229 111.774 0.252851 110.096 0.530992 110.323C0.809134 110.551 0.689144 112.602 0.264214 114.881ZM3.36555 119.479C2.97637 120.73 3.10869 121.722 3.66057 121.684C4.21167 121.646 4.53093 120.622 4.36901 119.409C4.13452 117.657 3.92945 117.672 3.36555 119.479ZM40.7358 150.693C41.2395 151.566 42.1404 152.246 42.7353 152.204C43.3302 152.163 42.9176 151.449 41.818 150.617C40.6023 149.699 40.1776 149.728 40.7358 150.693ZM58.9158 174.281C51.8954 175.921 51.7741 176.003 51.6231 179.217C51.5394 180.99 51.7832 180.87 52.6872 178.695C53.4158 176.944 54.0605 176.409 54.3862 177.282C54.6764 178.056 55.8945 177.996 57.0957 177.15C58.2968 176.304 59.5063 176.219 59.7847 176.965C60.062 177.709 61.539 177.199 63.0668 175.832C64.5943 174.463 65.6976 173.225 65.5195 173.079C65.3415 172.934 62.3696 173.475 58.9158 174.281ZM77.3846 185.756C74.9205 185.361 71.162 185.309 69.0326 185.64C66.0843 186.099 66.5821 186.277 71.1206 186.383C74.3977 186.46 78.3642 186.722 79.9354 186.965C81.5055 187.208 82.5825 187.196 82.3278 186.94C82.0738 186.682 79.8495 186.15 77.3846 185.756ZM68.3512 190.829C62.3896 191.425 57.3092 191.364 57.0587 190.694C56.8079 190.023 56.1659 190.008 55.6314 190.661C55.0976 191.313 52.7364 192.109 50.3831 192.429L46.1064 193.01L50.4557 192.989C52.8481 192.978 55.3449 193.409 56.0044 193.949C56.6648 194.489 57.5442 194.515 57.9601 194.007C58.3753 193.5 59.1637 193.835 59.7115 194.754C60.2591 195.672 61.3762 196.214 62.1927 195.958C63.096 195.674 62.8814 195.21 61.6441 194.773C57.9551 193.473 60.766 192.492 70.2505 191.769C75.3953 191.378 79.5101 190.761 79.3954 190.4C79.2817 190.039 74.311 190.232 68.3512 190.829ZM41.1371 172.623C36.2341 175.296 36.2192 175.32 39.847 174.741C42.3908 174.335 43.3798 174.656 43.068 175.786C42.82 176.683 43.69 175.967 45.0004 174.193C48.2146 169.846 47.0769 169.383 41.1371 172.623ZM61.5418 187.474C60.0256 188.059 58.8285 188.873 58.8826 189.284C58.9358 189.693 60.3778 189.38 62.0873 188.586C65.841 186.844 65.4168 185.978 61.5418 187.474ZM69.1809 195.581L65.4982 196.148L69.2606 196.195C72.7957 196.239 74.0216 195.961 73.2125 195.299C73.0203 195.141 71.2062 195.269 69.1809 195.581ZM-77.1995 83.7068C-79.1839 88.6834 -79.9365 98.1043 -78.6487 101.845C-77.9479 103.882 -75.7993 107.099 -73.8739 108.993C-71.9492 110.889 -69.4336 114.539 -68.2834 117.106L-66.1927 121.775L-73.7198 116.525L-81.2478 111.276L-73.8923 117.767C-68.401 122.613 -67.4467 123.802 -70.1306 122.458L-73.7245 120.657L-71.0266 123.552L-68.3279 126.446L-73.2115 124.564C-76.1128 123.447 -78.9685 121.49 -80.247 119.746L-82.3981 116.808L-79.2787 118.156C-76.2092 119.483 -76.2056 119.462 -79.0236 116.813C-80.5988 115.332 -82.2699 113.893 -82.7391 113.614C-83.2076 113.334 -83.2386 112.676 -82.8094 112.152C-82.3802 111.627 -82.7389 110.617 -83.6057 109.908C-86.0281 107.924 -85.7645 111.017 -83.0063 116.928C-80.1742 122.997 -76.1097 125.841 -68.4496 127.111C-64.8575 127.706 -63.0649 127.231 -61.4731 125.264C-60.0512 123.507 -59.9508 122.802 -61.176 123.17C-62.6873 123.625 -63.0271 123.347 -63.0603 121.627C-63.1096 119.059 -61.0171 108.23 -60.303 107.358C-59.1933 106.002 -58.6915 112.061 -59.5233 116.772C-60.0061 119.504 -60.0452 121.314 -59.612 120.793C-57.9617 118.817 -57.7481 102.417 -59.3532 101.103C-60.7753 99.9389 -65.6203 108.162 -66.0818 112.523C-66.9038 120.272 -68.4323 116.886 -69.0855 105.868C-69.4134 100.342 -70.292 94.5442 -71.0378 92.9831C-71.7838 91.4203 -71.6878 93.7358 -70.8245 98.1268C-69.962 102.519 -69.6659 106.14 -70.1659 106.175C-71.5671 106.273 -74.8457 89.8944 -73.508 89.4737C-72.3144 89.0991 -73.6979 82.9911 -75.2676 81.7061C-75.7379 81.321 -76.6073 82.2221 -77.1995 83.7068ZM45.6543 184.679C44.3868 186.269 44.181 186.983 45.1973 186.265C46.2135 185.548 47.2499 184.247 47.5011 183.375C47.7523 182.503 46.9217 183.09 45.6543 184.679ZM-74.4152 88.6133C-75.111 88.8318 -74.8897 93.3118 -73.9241 98.5683C-72.7757 104.823 -72.7773 107.627 -73.9283 106.685C-76.8513 104.292 -78.0319 100.319 -77.8253 93.5754C-77.6762 88.7443 -77.1566 87.2367 -75.7131 87.4503C-73.2088 87.8208 -72.8682 88.1268 -74.4152 88.6133ZM34.8085 179.117C33.9479 180.267 34.0027 180.69 34.9473 180.194C35.8031 179.745 36.4402 178.892 36.3635 178.301C36.2868 177.71 35.5876 178.077 34.8085 179.117ZM27.4825 173.291C23.6585 177.063 22.1766 178.993 22.745 179.458C23.7746 180.301 29.1406 175.119 28.6364 173.768C28.394 173.119 27.8743 172.904 27.4825 173.291ZM45.1538 189.178C44.2932 190.329 44.348 190.751 45.2926 190.255C46.1483 189.806 46.7854 188.954 46.7087 188.362C46.632 187.771 45.9329 188.138 45.1538 189.178ZM28.8348 180.463C27.5673 182.053 27.3615 182.766 28.3777 182.049C29.394 181.332 30.4304 180.031 30.6816 179.158C30.9328 178.286 30.1022 178.874 28.8348 180.463ZM33.8919 184.603C32.6245 186.193 32.4186 186.906 33.4349 186.189C34.4511 185.472 35.4875 184.171 35.7387 183.298C35.9899 182.426 35.1593 183.014 33.8919 184.603ZM-63.1167 113.546C-63.8756 117.523 -64.6974 120.61 -64.9432 120.409C-65.9313 119.6 -64.8865 111.401 -63.3816 108.157C-61.4058 103.895 -61.3786 104.446 -63.1167 113.546ZM1.14791 161.031C-0.861843 161.602 -2.55973 161.65 -2.62649 161.135C-2.73762 160.278 3.5692 158.983 4.42789 159.686C4.63221 159.854 3.15666 160.459 1.14791 161.031ZM39.1724 189.302C38.5837 189.342 37.1769 190.505 36.0461 191.887C34.9161 193.267 32.9188 194.547 31.6072 194.73C30.2966 194.913 31.1824 195.059 33.5776 195.055C35.9728 195.051 37.9984 195.55 38.0783 196.166C38.2292 197.33 43.3649 197.391 44.3061 196.241C44.6018 195.88 43.7483 195.063 42.411 194.427C41.0726 193.79 40.4845 193.11 41.1047 192.915C42.4606 192.489 40.6991 189.195 39.1724 189.302ZM51.5684 199.365C52.0721 200.238 52.973 200.918 53.5679 200.877C54.1628 200.835 53.7502 200.121 52.6506 199.29C51.4348 198.371 51.0102 198.4 51.5684 199.365ZM56.3946 203.956C58.8281 208.165 56.544 207.645 50.5052 202.614L45.2238 198.216L49.1922 202.639C51.8048 205.552 54.5399 207.499 57.1947 208.34L61.2287 209.617L59.222 206.26C58.1191 204.413 56.6544 202.488 55.9684 201.98C55.2817 201.474 55.4739 202.364 56.3946 203.956ZM-52.0979 120.178C-53.0238 121.39 -54.0939 123.559 -54.4739 124.999L-55.1659 127.617L-53.4625 125.827L-51.7591 124.038L-52.4511 126.655C-53.4208 130.324 -54.168 131.186 -54.8365 129.398C-55.1511 128.554 -55.7731 129.816 -56.2169 132.201C-56.6614 134.586 -57.639 136.732 -58.3887 136.966C-59.1392 137.202 -59.2709 137.79 -58.6822 138.272C-58.0936 138.754 -57.8751 139.469 -58.1984 139.862C-58.5218 140.255 -63.0112 138.443 -68.1748 135.838C-79.4085 130.17 -82.1294 129.502 -81.0369 132.685C-80.6246 133.884 -79.3586 135.587 -78.2219 136.468C-76.2032 138.037 -76.1874 138.019 -77.5305 135.735C-78.8031 133.569 -78.6845 133.501 -75.9197 134.799C-74.2784 135.57 -71.7865 137.119 -70.3833 138.243C-68.3243 139.892 -67.9707 139.858 -68.5525 138.07C-69.0688 136.48 -68.3076 136.947 -65.8594 139.722C-63.4099 142.5 -62.3982 143.121 -62.2706 141.923C-62.1734 141.006 -61.6394 140.628 -61.0831 141.083C-58.3968 143.282 -60.9364 144.591 -65.7546 143.492C-68.7163 142.816 -70.6757 142.673 -70.1086 143.177C-69.5407 143.68 -65.8009 144.578 -61.7986 145.172C-56.3666 145.978 -54.5867 145.739 -54.7826 144.228C-54.927 143.115 -54.0059 140.87 -52.7356 139.239C-50.7527 136.691 -50.7717 136.44 -52.869 137.459C-55.2446 138.611 -55.2823 138.57 -54.243 135.953C-53.6566 134.473 -53.66 133.186 -54.2509 133.09C-54.8426 132.996 -54.2939 131.657 -53.032 130.116C-51.0677 127.716 -50.651 127.667 -50.14 129.767C-49.8112 131.117 -49.4036 129.305 -49.2349 125.74C-48.8901 118.43 -49.6421 116.968 -52.0979 120.178ZM1.6626 164.783C-0.419335 165.376 -1.38439 165.979 -0.481616 166.123C1.24199 166.399 6.60528 164.653 5.873 164.054C5.63936 163.862 3.74552 164.191 1.6626 164.783ZM-16.277 162.944C-17.0551 163.894 -18.6886 157.914 -19.2341 152.112C-19.8391 145.676 -19.8312 145.689 -17.9129 154.109C-16.851 158.769 -16.1139 162.745 -16.277 162.944ZM-13.8578 155.862C-13.9571 158.408 -13.811 160.676 -13.5329 160.904C-13.2547 161.132 -12.9456 159.236 -12.8464 156.69C-12.7471 154.144 -12.8931 151.875 -13.1712 151.647C-13.4494 151.42 -13.7586 153.316 -13.8578 155.862ZM22.8133 189.005C19.8248 193.524 18.6839 194.367 15.061 194.733C9.09878 195.339 8.33931 194.119 12.4457 190.531C15.4876 187.873 15.5617 187.657 12.984 188.959C11.3387 189.788 9.60123 191.358 9.122 192.444C8.5393 193.765 7.92304 193.872 7.26326 192.765C6.72021 191.854 6.78764 190.352 7.41423 189.425C8.04082 188.499 6.88364 189.217 4.84276 191.019C1.98605 193.543 -0.0796993 194.149 -4.13328 193.655C-8.1787 193.161 -9.3584 192.576 -9.22357 191.134C-9.09826 189.807 -9.53408 189.793 -10.7038 191.083C-11.6138 192.09 -12.1507 192.188 -11.894 191.303C-11.1757 188.818 -13.1052 187.958 -14.7886 190.014C-15.9389 191.42 -17.8741 191.15 -22.9857 188.876C-26.6659 187.239 -29.9252 185.696 -30.2276 185.449C-30.5301 185.201 -29.1015 182.61 -27.052 179.69L-23.326 174.381L-27.5018 179.1C-31.5506 183.677 -31.7547 183.74 -34.1921 181.216C-36.6451 178.676 -36.6589 178.681 -34.7789 181.417C-33.1594 183.776 -33.3735 185.053 -36.1239 189.443L-39.395 194.662L-35.7149 190.491L-32.0341 186.318L-24.1229 189.873C-19.6983 191.862 -15.3956 194.563 -14.3584 196.001C-12.924 197.992 -12.6629 198.067 -13.2027 196.331C-13.7704 194.505 -13.4254 194.467 -11.3476 196.129C-9.26381 197.795 -8.92161 197.756 -9.48478 195.917C-9.92902 194.464 -9.65028 193.832 -8.70194 194.139C-7.89235 194.401 -4.91094 194.797 -2.07596 195.019C0.760026 195.243 3.49938 196.129 4.01221 196.988C4.53428 197.863 5.95124 197.921 7.22793 197.121C8.75795 196.162 10.4225 196.4 12.2777 197.844C14.4788 199.557 14.7845 199.551 13.7691 197.814C12.5503 195.729 12.6454 195.625 15.8472 195.56C17.692 195.523 20.1856 196.187 21.3879 197.038C22.5901 197.886 23.6296 198.059 23.6978 197.421C23.7642 196.782 24.9854 197.214 26.4085 198.379C27.8316 199.544 29.3861 200.022 29.8614 199.441C30.41 198.771 29.5437 197.807 27.4977 196.809C24.5204 195.357 24.4908 195.191 27.1066 194.672C29.4397 194.21 29.2331 194.095 25.9543 194.027C22.3493 193.952 22.1636 193.831 24.0359 192.771C25.2739 192.07 25.5142 191.504 24.6316 191.363C23.8191 191.233 23.7825 190.345 24.5509 189.389C25.3184 188.433 26.0313 186.764 26.1328 185.678C26.2416 184.53 24.8541 185.92 22.8133 189.005ZM14.8674 178.714C14.0068 179.864 14.0616 180.286 15.0062 179.791C15.8619 179.342 16.499 178.489 16.4223 177.898C16.3456 177.306 15.6465 177.673 14.8674 178.714ZM28.0159 189.478C27.1553 190.628 27.2101 191.05 28.1547 190.555C29.0105 190.106 29.6475 189.253 29.5708 188.662C29.4941 188.07 28.795 188.438 28.0159 189.478ZM47.6663 204.132C48.17 205.004 49.071 205.685 49.6659 205.643C50.2607 205.601 49.8482 204.888 48.7486 204.056C47.5328 203.137 47.1081 203.167 47.6663 204.132ZM7.25825 174.288C5.89796 174.737 4.21431 176.428 3.51749 178.047L2.2502 180.99L5.07504 179.05C6.62907 177.983 8.31271 176.292 8.8168 175.292C9.62334 173.69 9.43883 173.571 7.25825 174.288ZM-43.5335 140.528C-48.4769 146.571 -49.521 157.369 -44.8457 154.097C-43.7807 153.352 -43.9373 153.246 -45.5166 153.644C-48.8224 154.475 -47.2077 148.892 -43.005 144.959C-40.526 142.639 -39.6019 140.891 -39.9757 139.228C-40.434 137.186 -40.9578 137.378 -43.5335 140.528ZM9.95396 182.652C9.09333 183.803 9.14813 184.225 10.0928 183.729C10.9485 183.28 11.5855 182.428 11.5088 181.836C11.4321 181.245 10.733 181.612 9.95396 182.652ZM34.3519 201.178C39.7742 206.796 40.8349 208.603 39.2237 209.48C38.0575 210.114 38.4248 210.786 40.6007 211.997C42.2336 212.906 43.8637 213.29 44.2227 212.851C45.1623 211.703 39.5464 204.336 35.2626 201.098C31.815 198.493 31.764 198.498 34.3519 201.178ZM32.5265 202.892C33.3029 203.929 34.8969 205.234 36.0665 205.79C37.2354 206.347 36.6002 205.5 34.6532 203.906C32.7062 202.312 31.7494 201.856 32.5265 202.892ZM-36.2795 155.418C-37.3016 157.428 -38.3502 161.569 -38.6117 164.62C-39.2112 171.653 -39.5693 172.022 -42.3055 168.441C-45.5569 164.186 -45.7506 161.835 -43.1365 158.367L-40.8158 155.287L-43.9287 157.515C-45.6412 158.74 -46.7162 159.234 -46.3168 158.612C-45.9174 157.99 -46.991 156.334 -48.7034 154.932C-51.0347 153.024 -51.5883 152.924 -50.9097 154.532C-49.5145 157.838 -50.9984 158.532 -54.996 156.441C-56.9939 155.396 -58.5748 154.958 -58.5087 155.468C-58.4416 155.978 -56.6383 157.071 -54.4999 157.896C-52.3622 158.723 -50.6663 159.901 -50.731 160.517C-50.7966 161.133 -53.5807 160.321 -56.9181 158.712C-60.2556 157.104 -62.9361 156.183 -62.8727 156.665C-62.8101 157.148 -60.6848 158.382 -58.1479 159.408C-52.1408 161.838 -51.9213 163.768 -57.8593 161.946C-60.3836 161.171 -61.7361 161.15 -60.8632 161.899C-59.9895 162.648 -56.4343 163.509 -52.9634 163.811C-47.0885 164.323 -46.4194 164.674 -43.3193 168.85C-39.5265 173.963 -39.7407 175.287 -44.0256 173.198C-47.9747 171.272 -57.2409 169.649 -58.1251 170.729C-58.5114 171.201 -57.096 172.955 -54.9808 174.626C-52.1044 176.897 -51.4803 177.073 -52.5091 175.323C-53.7108 173.279 -53.3424 173.192 -49.588 174.642C-43.9909 176.804 -43.4277 177.403 -47.234 177.15C-48.944 177.035 -49.9575 177.258 -49.4871 177.643C-47.8234 179.005 -37.8686 179.001 -36.7526 177.638C-35.5531 176.173 -36.1121 168.461 -37.4559 167.921C-37.8935 167.746 -37.3872 166.548 -36.3321 165.259C-33.8301 162.203 -33.541 162.599 -34.0463 168.391C-34.2776 171.049 -34.0961 172.197 -33.6427 170.946C-32.5807 168.016 -32.5594 153.445 -33.6159 152.493C-34.0594 152.091 -35.2573 153.408 -36.2795 155.418ZM26.1186 202.466C27.4691 203.936 29.9734 205.986 31.6814 207.02C33.3894 208.053 32.2842 206.851 29.2247 204.346C26.1651 201.841 24.768 200.996 26.1186 202.466ZM-44.2574 147.599C-44.8762 148.355 -45.1659 149.551 -44.9016 150.257C-44.639 150.964 -43.9576 150.489 -43.3896 149.201C-42.1853 146.469 -42.6419 145.626 -44.2574 147.599ZM-41.3176 151.362C-41.7067 152.613 -41.5745 153.605 -41.0226 153.567C-40.4715 153.529 -40.1522 152.505 -40.3141 151.292C-40.5486 149.54 -40.7537 149.555 -41.3176 151.362ZM-33.6249 160.516C-33.7184 161.392 -34.62 162.093 -35.6299 162.072C-36.6395 162.052 -37.0124 161.93 -36.457 161.801C-35.9033 161.671 -35.4851 160.574 -35.5282 159.364C-35.583 157.861 -35.2668 157.441 -34.5314 158.043C-33.9408 158.527 -33.5325 159.64 -33.6249 160.516ZM19.2869 203.805C20.3397 205.629 20.3044 206.995 19.1871 207.602C17.8452 208.331 18.2539 209.217 20.9493 211.423C22.8791 213.003 24.6265 214.09 24.8325 213.838C25.4256 213.114 20.4935 203.078 18.9956 201.964C18.2502 201.409 18.3821 202.238 19.2869 203.805ZM-9.22133 183.54C-10.2944 184.851 -10.5041 185.575 -9.68706 185.149C-8.86975 184.724 -7.99179 183.652 -7.73605 182.766C-7.48007 181.881 -8.14827 182.229 -9.22133 183.54ZM9.84689 198.612C10.3258 199.447 11.4637 200.378 12.3754 200.682C13.2875 200.988 12.8952 200.305 11.5045 199.167C10.1137 198.028 9.36821 197.779 9.84689 198.612ZM14.904 202.752C15.3829 203.587 16.5208 204.518 17.4326 204.822C18.3446 205.128 17.9523 204.445 16.5616 203.307C15.1709 202.168 14.4253 201.919 14.904 202.752ZM-54.0196 148.655C-53.8666 149.87 -53.29 150.83 -52.7391 150.791C-52.1873 150.752 -52.3123 149.76 -53.0162 148.585C-54.0345 146.889 -54.2397 146.902 -54.0196 148.655ZM-6.49091 188.296C-7.35154 189.446 -7.29677 189.868 -6.35214 189.372C-5.49639 188.923 -4.85927 188.071 -4.93597 187.48C-5.01267 186.888 -5.71186 187.255 -6.49091 188.296ZM8.48275 202.342C9.54916 203.594 11.5963 205.27 13.0342 206.068C14.4728 206.865 13.6004 205.84 11.0972 203.791C8.59387 201.742 7.41713 201.089 8.48275 202.342ZM0.168239 204.76L1.58158 208.192L-0.78188 206.315C-2.08931 205.275 -3.21349 205.09 -3.29992 205.901C-3.48183 207.621 2.20832 212.585 3.10578 211.489C3.79254 210.65 1.0086 203.028 -0.361322 201.994C-0.847249 201.628 -0.609064 202.872 0.168239 204.76ZM-66.5514 152.133C-73.3656 150.422 -73.8742 152.057 -68.1005 157.121C-63.7448 160.941 -63.4924 161.033 -65.8873 157.923C-69.7317 152.929 -69.4566 152.213 -64.2994 153.786C-61.7967 154.548 -60.1756 154.766 -60.6975 154.268C-61.2195 153.771 -63.8537 152.81 -66.5514 152.133ZM-7.06001 200.693C-6.5811 201.527 -5.44325 202.459 -4.53145 202.763C-3.61942 203.068 -4.01168 202.386 -5.40239 201.247C-6.7931 200.109 -7.53868 199.86 -7.06001 200.693ZM-10.159 201.383C-9.38272 202.42 -7.7887 203.725 -6.61903 204.281C-5.45017 204.838 -6.08542 203.99 -8.0324 202.396C-9.9794 200.802 -10.9361 200.347 -10.159 201.383ZM-41.1908 177.845C-41.7921 177.886 -43.7315 176.846 -45.501 175.533C-47.3617 174.151 -47.939 173.269 -46.8708 173.44C-44.6856 173.79 -39.5997 177.733 -41.1908 177.845ZM-45.3609 198.71C-53.9506 208.744 -57.7684 211.581 -60.2874 209.801C-61.9266 208.642 -61.9951 208.282 -60.5337 208.515C-59.0372 208.755 -59.1405 207.24 -60.9276 202.767C-64.3232 194.269 -72.1124 179.555 -73.5142 178.993C-75.4378 178.221 -74.2111 197.438 -72.0234 202.344C-70.9069 204.847 -68.0407 208.523 -65.6525 210.515L-61.3109 214.136L-69.1951 222.409C-73.5312 226.959 -77.9149 231.253 -78.9357 231.949C-79.9555 232.646 -80.355 233.573 -79.8219 234.01C-79.2889 234.446 -74.6488 230.338 -69.5104 224.878L-60.1687 214.955L-54.9502 216.219C-46.7793 218.201 -24.8248 215.362 -25.212 212.377C-25.2921 211.759 -29.6154 210.204 -34.8183 208.92C-41.7386 207.213 -45.3715 207.069 -48.3509 208.389C-50.5908 209.382 -52.6813 210 -52.9951 209.762C-53.3096 209.525 -51.1598 206.765 -48.2181 203.628C-45.2762 200.492 -42.4188 196.921 -41.8668 195.692C-41.3165 194.463 -42.8886 195.822 -45.3609 198.71ZM-41.0953 210.855C-45.7736 210.926 -49.1508 211.354 -48.5995 211.805C-48.0493 212.255 -43.5726 212.61 -38.6532 212.593C-33.733 212.576 -29.6619 212.912 -29.6072 213.34C-29.5518 213.768 -33.8291 214.672 -39.1113 215.348C-51.6671 216.955 -62.919 214.604 -53.7176 212.298C-51.7214 211.797 -49.5714 210.774 -48.939 210.024C-47.8595 208.743 -34.6303 208.829 -33.2334 210.127C-32.8789 210.455 -36.4163 210.783 -41.0953 210.855ZM-68.5606 191.563C-66.9339 191.823 -60.8382 203.875 -61.0979 206.319C-61.3789 208.976 -62.9462 206.539 -65.4876 199.49C-66.8543 195.7 -68.3452 192.625 -68.8021 192.657C-69.578 192.711 -67.1121 199.407 -62.9353 208.589L-61.1254 212.568L-65.0163 209.447C-69.8697 205.553 -71.2895 202.537 -72.6874 193.16C-73.9086 184.964 -73.2 182.216 -71.2929 187.755C-70.6171 189.717 -69.3878 191.43 -68.5606 191.563Z" fill="#1ABC00" fill-opacity="0.43"/>
</svg>
