<?xml version="1.0" standalone="yes"?>
<svg xmlns="http://www.w3.org/2000/svg" width="4800" height="4800">
    <path style="fill:#649AFF; stroke:none;"
        d="M1151 748.347 1140.86 753.054 1140 758C1132.28 760.168 1117.06 773.853 1116 782C1112 783.093 1108.48 785.738 1108 790C1101.9 790 1092.69 803.47 1089 809C1081.62 820.074 1071.35 828.975 1064 840C1058.31 848.538 1053.55 859.454 1046 867C1035.12 877.885 1019.95 884.035 1008 893C997.768 900.674 990.543 909.093 980 917C967.487 926.385 952.169 937.442 942 951C927.565 970.247 908.691 987.078 893 1008C886.983 1016.02 880.398 1024.75 875 1034C872.344 1038.55 869.431 1045.46 865 1049C859.446 1053.44 851.66 1057.7 846 1061C828.616 1071.14 815.172 1084.87 799 1097C794.531 1100.35 787.819 1109.45 786 1109L784 1113C773.609 1114.77 760.333 1131.57 754.59 1139.96C752.552 1142.94 749.561 1145.44 749 1149C740.229 1151.62 732.396 1163.78 727.343 1171C715.976 1187.23 703.192 1202.43 692.167 1219C651.88 1279.55 624.85 1348.93 610.551 1420C606.122 1442.01 601.271 1465.51 601.004 1488C596.637 1855.21 601 2222.76 601 2590L601 3386L601 3578C601 3628.51 599.634 3679.09 608.321 3729C630.127 3854.28 695.579 3964.18 786.015 4051.96C800.471 4065.99 817.951 4077.52 834 4089.51C908.171 4144.93 998.881 4182.43 1091 4194.51C1163.42 4204.01 1237.95 4200 1311 4200L1647 4200L2811 4200L3139 4200C3186.39 4200 3233.71 4199.55 3281 4198.46C3296.05 4198.11 3311.1 4199.19 3326 4197.52C3407.33 4188.41 3485.97 4162.67 3557 4122.13C3613.81 4089.7 3664.51 4045.8 3706.79 3996C3716.64 3984.39 3726.53 3971.74 3734.92 3959C3740.51 3950.51 3745.4 3939.71 3753.05 3932.92C3771.71 3916.38 3794.84 3904.75 3813.91 3888.4C3858.35 3850.29 3893.84 3807.3 3927.79 3760C3933.81 3751.61 3946.5 3747.69 3951 3739C3959.15 3738.32 3965.85 3730.43 3971.96 3725.6C3987.24 3713.51 4003.17 3701.76 4017 3688C4021.8 3683.22 4032.69 3677.02 4033 3670C4045.19 3664.31 4053.99 3649.89 4062.75 3640.09C4087.01 3612.97 4108.41 3582.12 4125.49 3550C4163.61 3478.34 4189.31 3403.17 4197.38 3322C4204.09 3254.51 4199 3183.96 4199 3116L4199 1487L4199 1238C4199 1154.87 4199.03 1071.4 4170.44 992C4158.1 957.738 4144.91 925.035 4127.54 893C4122.21 883.168 4115.17 864.2 4105 859C4104.83 851.205 4094.52 840.459 4090.02 834.001C4078.23 817.068 4064.13 801.75 4050.24 786.562C4044.16 779.925 4037.79 771.624 4030 767L4031 765L4026 763C4025.16 758.462 4021.31 756.173 4017 755C4015.29 745.622 3996.33 733.908 3989 727.964C3958.38 703.126 3925.62 680.643 3890 663.703C3838.55 639.236 3784.79 617.331 3728 608.439C3626.88 592.605 3521.24 600 3419 600L1688 600C1591.04 600 1492.19 594.07 1397 615.514C1350.29 626.035 1305.48 645.497 1263 667.056C1232.3 682.635 1202.17 701.425 1176 723.792C1169.04 729.74 1152.99 737.538 1151 747z" />
    d="M3643.67 600.333L3644.33 600.667L3643.67 600.333z"/>
    <path style="fill:#ffffff; stroke:none;"
        d="M1171 807L1171 808C1207.99 800.344 1243.07 787.824 1281 783.285C1360.23 773.805 1442.19 779 1522 779L1931 779L3183 779L3381 779C3446.91 779 3512.37 778.874 3577 793.499C3669.73 814.484 3754.31 860.4 3826 922.13C3862.15 953.261 3893.97 989.921 3921.28 1029C3975.27 1106.25 4007.91 1200.4 4016.83 1294C4022.63 1354.84 4020 1416.81 4020 1478L4020 1818L4020 2916L4020 3279C4020 3339.81 4022.62 3401.26 4019.96 3462C4018.54 3494.57 4016.65 3526.96 4009.58 3559C4004.79 3580.68 3993.96 3605 3993 3627C4024.28 3601.85 4049.41 3562.65 4068.86 3528C4102.03 3468.91 4126.39 3405.71 4134.71 3338C4140.93 3287.41 4140 3236.02 4140 3185L4140 2286L4140 1374C4140 1282.84 4146.88 1188.31 4134.54 1098C4123.39 1016.4 4090.97 934.57 4040.96 869C4012.01 831.036 3979.58 795.992 3942 766.375C3885.22 721.623 3812.76 687.281 3742 672.21C3683.79 659.814 3625.3 661 3566 661L3360 661L1945 661L1625 661C1539.32 661 1454.58 657.749 1372 684.671C1322.93 700.669 1274.91 724.604 1233 754.746C1210.87 770.66 1192.52 790.606 1171 807z" />
    <path style="fill:#ffffff; stroke:none;"
        d="M1061 970C1071.81 969.97 1081.45 965.786 1092 964.286C1114.74 961.053 1138.02 959.277 1161 959.004C1347.27 956.791 1533.71 959 1720 959L2857 959L3169 959C3239.69 959 3312.7 954.893 3382 970.425C3443.85 984.288 3506.23 1006.07 3561 1038.58C3601.61 1062.69 3638.59 1093.88 3673 1126.09C3697.51 1149.03 3718.38 1177.43 3737.35 1205C3786.46 1276.4 3819.47 1356.12 3832.73 1442C3843.21 1509.88 3840 1579.4 3840 1648L3840 1888L3840 3054L3840 3444C3840 3508.46 3842.78 3573.61 3839.96 3638C3839.12 3657.22 3839.09 3676.89 3836.71 3696C3834.98 3709.92 3830.6 3724.04 3830 3738C3846.92 3734.99 3876.27 3720.74 3887.82 3707.98C3900.05 3694.47 3908.32 3673.61 3915.43 3657C3932.72 3616.59 3946 3574.54 3952.73 3531C3955.92 3510.31 3956.2 3489.74 3958.17 3469C3961.82 3430.64 3960 3391.56 3960 3353L3960 3163L3960 2582L3960 1533L3960 1393C3960 1357.13 3960.92 1320.5 3955.56 1285C3931.44 1125.16 3839.4 982.072 3696 903.312C3639.67 872.371 3573.2 849.31 3509 843.17C3454.93 837.998 3399.39 841 3345 841L3043 841L1665 841L1428 841C1351.16 841 1277.4 840.312 1203 861.999C1175.55 870.001 1149.8 881.033 1124 893.219C1113.29 898.279 1099.16 903.28 1090.53 911.609C1081.81 920.024 1077.02 934.295 1071.76 945C1067.92 952.81 1062.34 961.354 1061 970z" />
    <path style="fill:#ffffff; stroke:none;"
        d="M1150 1021.56C1122.94 1024.04 1095.8 1024.94 1069 1030.2C1059.64 1032.03 1046.32 1032.79 1039.53 1040.3C1031.06 1049.68 1030.63 1069.03 1028.39 1081C1021.3 1118.82 1020 1156.6 1020 1195L1020 1600L1020 2927L1020 3167C1020 3217.74 1017.35 3269.51 1022.17 3320C1030.17 3403.72 1060.34 3486.46 1107.59 3556C1131.39 3591.03 1159.92 3624.71 1192 3652.42C1258.3 3709.7 1340.35 3753.2 1427 3769.54C1483.5 3780.2 1539.73 3779 1597 3779L1800 3779L3065 3779L3475 3779L3602 3779C3636.84 3779 3671.46 3779.68 3706 3774.57C3720.5 3772.43 3747.76 3771.19 3758.66 3760.61C3766.41 3753.09 3767.44 3737.06 3769.45 3727C3775.94 3694.56 3776.06 3662.69 3779.17 3630C3783.98 3579.48 3780 3526.78 3780 3476L3780 3182L3780 1846L3780 1634C3780 1591.88 3782.26 1548.96 3778.91 1507C3770.86 1406.32 3740.93 1307.11 3678.57 1226C3605.19 1130.55 3501.62 1058.62 3383 1032.42C3322.5 1019.06 3260.62 1021 3199 1021L2963 1021L1752 1021L1353 1021L1221 1021C1197.52 1021 1173.39 1019.41 1150 1021.56z" />
    <path style="fill:#ffffff; stroke:none;"
        d="M3738 3830C3713.27 3833.13 3689.02 3838.68 3664 3839.9C3586.66 3843.67 3508.49 3841 3431 3841L3049 3841L1829 3841L1611 3841C1557.96 3841 1504.43 3842.52 1452 3835.71C1305.11 3816.63 1168.06 3734.44 1077.67 3618C1008.61 3529.05 972.043 3421.8 960.174 3311C958.183 3292.42 960 3272.69 960 3254L960 3142L960 2837L960 1692L960 1311C960 1250.79 957.917 1190.11 959.749 1130C960.446 1107.13 969.532 1084.54 970 1062C960.633 1062.96 951.327 1069.59 943 1073.75C931.903 1079.3 918.987 1084.12 910.185 1093.17C901.116 1102.49 895.396 1118.24 890.139 1130C879.992 1152.71 870.376 1175.18 862.974 1199C839.476 1274.62 840 1349.65 840 1428L840 1664L840 3027L840 3332C840 3390.59 836.328 3450.82 843.286 3509C850.924 3572.87 870.804 3632.91 900.108 3690C973.458 3832.9 1119.8 3930.05 1277 3954.56C1310.31 3959.75 1344.36 3959 1378 3959L1506 3959L2628 3959L3449 3959C3514.41 3959 3576.84 3946.3 3638 3923.42C3655.73 3916.79 3672.52 3908.73 3689 3899.42C3695.72 3895.63 3703.2 3893.12 3708.79 3887.56C3712.53 3883.83 3713.82 3878.47 3716.45 3874C3724.77 3859.85 3731.77 3845.18 3738 3830z" />
    <path style="fill:#ffffff; stroke:none;"
        d="M806 1173C750.557 1233.74 705.662 1300.35 681.771 1380C658.488 1457.62 660 1534.84 660 1615L660 1878L660 3381L660 3566C660 3609.56 658.463 3653.8 664.282 3697C681.74 3826.59 750.695 3950.99 855 4030.76C925.037 4084.33 1008.23 4122.19 1096 4134.7C1137.26 4140.58 1179.34 4139 1221 4139L1398 4139L2348 4139L3190 4139C3232.28 4139 3275.94 4142.05 3318 4137.83C3405.14 4129.08 3494.87 4098.01 3565 4044.9C3586.01 4028.99 3609.34 4013.68 3626 3993C3609.32 3994.36 3592.34 4001.97 3576 4005.76C3545.97 4012.74 3514.73 4017.81 3484 4019.91C3411.77 4024.86 3337.58 4021 3265 4021L2856 4021L1625 4021L1418 4021C1366.46 4021 1314.04 4022.6 1263 4014.7C1089.27 3987.82 927.186 3874.85 846.109 3718C811.326 3650.71 789.258 3577.24 781.174 3502C775.164 3446.07 780 3387.26 780 3331L780 3019L780 1686L780 1426C780 1386.57 777.609 1346.32 779.47 1307C780.93 1276.14 787.985 1243.95 795.475 1214C798.273 1202.81 808.566 1184.23 806 1173z" />
    <path style="fill:#649AFF; stroke:none;"
        d="M2598 1526C2592.67 1514.68 2574.16 1509.41 2563 1505.98C2527.4 1495.02 2486.97 1500 2450 1500L2249 1500C2213.68 1500 2174.48 1495.24 2140 1503.9C2097.22 1514.64 2064.23 1551.14 2056.09 1594C2053.1 1609.77 2055 1626.97 2055 1643L2055 1732L2055 2014L2055 2337L2055 2410C2055 2438.46 2054.83 2464.06 2068.26 2490C2084.02 2520.45 2117.68 2544.55 2152 2547.83C2186.99 2551.18 2223.83 2548 2259 2548L2470 2548C2519.57 2548 2569.24 2554.59 2608.85 2518.41C2643.48 2486.78 2644 2444.1 2644 2401L2644 2310C2644 2295.37 2640.32 2275.07 2644.43 2261.05C2645.68 2256.8 2650.87 2254.25 2653.68 2251C2660.56 2243.02 2666.91 2234.96 2672.54 2226C2677.52 2218.05 2681.44 2209.57 2685.14 2201C2686.55 2197.74 2687.38 2192.13 2690.31 2189.94C2694.35 2186.93 2701.29 2188 2706 2188L2743 2188L2869 2188C2890.76 2188 2913.14 2189.69 2928.78 2171C2938.68 2159.16 2939 2143.56 2939 2129L2939 2073L2939 1845C2939 1816.3 2946.87 1774.85 2929.9 1750.04C2914.42 1727.41 2887.86 1730 2864 1730L2704 1730L2663 1730C2658.37 1730 2650.34 1731.51 2646.32 1728.82C2642.89 1726.53 2644 1720.52 2644 1717L2644 1682C2644 1640.78 2648.3 1599.17 2630.32 1561C2624.93 1549.54 2611.99 1527.28 2598 1526z" />
    <path style="fill:#ffffff; stroke:none;"
        d="M2159 1533.51C2124.64 1540.39 2098.95 1561.73 2089.42 1596C2087 1604.72 2087 1612.06 2087 1621C2087 1623.62 2086.25 1628.11 2088.6 1629.97C2094.27 1634.46 2113.84 1631 2121 1631L2210 1631L2495 1631L2575 1631C2584.44 1631 2600.02 1633.68 2608.68 1629.4C2611.86 1627.83 2610.97 1622.89 2611 1620C2611.11 1610.61 2610.92 1603.25 2608.52 1594C2599.83 1560.4 2572.28 1539.3 2539 1533.46C2516.31 1529.48 2490.05 1533 2467 1533L2320 1533L2212 1533C2195.16 1533 2175.51 1530.21 2159 1533.51z" />
    <path style="fill:#649AFF; stroke:none;"
        d="M2272 1566.42C2266.8 1567.11 2261.35 1566.93 2257.05 1570.42C2248.24 1577.57 2250.16 1590.48 2260 1595.55C2271.03 1601.22 2292.13 1598.61 2304 1596.7C2317.54 1594.51 2319.44 1576.99 2308.96 1569.7C2300.74 1563.98 2281.61 1565.16 2272 1566.42z" />
    <path style="fill:#649AFF; stroke:none;"
        d="M2364 1566.43C2346.76 1568.93 2344.54 1590.72 2361 1597.01C2367.42 1599.46 2376.22 1598 2383 1598C2399.48 1598 2420.6 1601.52 2436.46 1596.78C2450.01 1592.73 2449.6 1572.15 2437 1567.15C2430.03 1564.38 2420.37 1566 2413 1566C2397.05 1566 2379.78 1564.14 2364 1566.43z" />
    <path style="fill:#ffffff; stroke:none;"
        d="M2611 2286C2598.61 2287.27 2585.17 2295.06 2573 2298.56C2566.69 2300.37 2560.52 2302.54 2554 2303.56C2543.99 2305.12 2529.39 2300.5 2529.32 2288C2529.26 2279 2535.52 2268.45 2538.33 2260C2543.12 2245.64 2545.83 2230.93 2548.25 2216C2549.19 2210.18 2552.19 2195.05 2547.44 2190.6C2542.16 2185.67 2523 2189 2516 2189C2487.45 2189 2443.99 2197.39 2424.9 2170C2407.09 2144.43 2415 2102.82 2415 2073L2415 1842C2415 1825.67 2415.19 1809.33 2415 1793C2414.78 1775.2 2414.26 1756.85 2429.18 1743.68C2447.67 1727.37 2469.09 1730 2492 1730L2611 1730C2612.12 1714.08 2614.69 1689.51 2605.53 1675.83C2603.44 1672.72 2602.16 1668.17 2598.79 1666.18C2590.93 1661.55 2571.86 1664.3 2563 1664.91C2541.21 1666.4 2518.84 1665 2497 1665L2226 1665L2120 1665C2113.78 1665 2088.43 1661.56 2087.15 1669.06C2084.21 1686.32 2087 1706.47 2087 1724L2087 1837L2087 2187L2087 2310L2087 2340C2087 2342.98 2085.93 2348.85 2088.6 2350.97C2094.13 2355.35 2113.03 2352 2120 2352L2208 2352L2489 2352L2568 2352C2577.77 2352 2592.83 2354.77 2601.84 2350.44C2606.11 2348.39 2607.17 2339.18 2608.11 2335C2611.74 2318.9 2611 2302.44 2611 2286z" />
    <path style="fill:#ffffff; stroke:none;"
        d="M2573 2263C2605.35 2259.69 2636.11 2227.27 2649.75 2200C2655.36 2188.78 2658.15 2163.48 2670 2157.77C2684.42 2150.83 2707.37 2155 2723 2155L2844 2155L2882 2155C2888.01 2155 2894.74 2155.84 2900 2152.3C2913.02 2143.53 2907 2111.95 2907 2098L2907 1940L2907 1812C2907 1799.93 2911.75 1775.3 2900.79 1766.97C2892.97 1761.03 2881.18 1763 2872 1763L2807 1763L2551 1763C2526.43 1763 2501.5 1764.19 2477 1763.1C2466.9 1762.65 2454.29 1761.78 2449.96 1773C2446.42 1782.14 2448 1793.39 2448 1803L2448 1859L2448 2055L2448 2119C2448 2127.42 2445.8 2139.49 2450.23 2147C2456.83 2158.19 2471.98 2155 2483 2155L2541 2155C2550 2155 2560.7 2153.38 2569 2157.56C2578.77 2162.47 2580.05 2173.38 2582 2183C2587.53 2210.34 2576.9 2236.46 2573 2263z" />
    <path style="fill:#649AFF; stroke:none;"
        d="M2632 1811C2617.24 1810.34 2600.13 1836.05 2595.09 1848C2583.17 1876.3 2584.99 1907.34 2579.38 1937C2576.89 1950.19 2569.21 1964.74 2563.69 1977C2557.28 1991.22 2540.94 2017.12 2546.95 2033C2559.01 2064.81 2596.78 2058 2624 2058C2628.89 2058 2635.28 2056.21 2639.96 2057.33C2647.32 2059.11 2649 2076.18 2655.17 2081.47C2671.42 2095.4 2693.67 2091.61 2705.53 2073.99C2708.78 2069.15 2709.44 2062.54 2711 2057C2720.22 2059.2 2730.56 2058 2740 2058C2765.6 2058 2808.62 2062.56 2809.47 2025C2809.67 2015.93 2803.67 2006.2 2800.46 1998C2792.59 1977.89 2780.63 1957.09 2775.82 1936C2766.92 1896.99 2773.39 1847.74 2739.03 1819.35C2716.19 1800.48 2686.35 1790.55 2657 1798.58C2649.87 1800.53 2633.78 1802.36 2632 1811z" />
    <path style="fill:#ffffff; stroke:none;"
        d="M2674 1828.43C2635.45 1833.61 2622.98 1860.09 2618.13 1895C2617.11 1902.35 2616.28 1909.67 2615.08 1917C2614.7 1919.32 2613.44 1923.18 2615.62 1924.97C2619.07 1927.82 2631.51 1926.98 2636 1927C2654 1927.09 2672 1926.99 2690 1927C2700.05 1927 2712.75 1933.68 2709.73 1946.17C2708.24 1952.36 2701.25 1958.11 2695 1959.01C2673.99 1962 2650.26 1959 2629 1959C2621.23 1959 2609.81 1956.65 2604.73 1964.04C2596.59 1975.88 2591.98 1994.55 2586.55 2008C2585.17 2011.42 2579.59 2019.71 2582.12 2023.38C2583.89 2025.94 2590.37 2024.04 2593 2024C2604 2023.87 2615 2024 2626 2024L2732 2024C2742 2024 2752 2023.95 2762 2024C2765.27 2024.02 2770.68 2025.71 2773.67 2024.36C2778.03 2022.38 2771.48 2012.79 2770.28 2010C2763.71 1994.77 2757.94 1979.22 2751.35 1964C2742.04 1942.52 2740.18 1919.96 2737.16 1897C2735.8 1886.69 2735.63 1875.78 2731.66 1866C2722.83 1844.3 2698.76 1825.09 2674 1828.43z" />
    <path style="fill:#649AFF; stroke:none;"
        d="M2148 2222.67C2132.02 2227.27 2136.44 2249.05 2136.96 2261C2137.16 2265.66 2136.53 2270.48 2137.99 2275C2140.14 2281.62 2146.63 2288.04 2154 2286.2C2171.94 2281.73 2171.87 2249.76 2167.08 2235C2164.61 2227.38 2156.62 2220.19 2148 2222.67z" />
    <path style="fill:#649AFF; stroke:none;"
        d="M2233 2222.68C2215.78 2226.44 2219 2244.49 2219 2258C2219 2262.88 2217.9 2269.37 2219.6 2274C2221.36 2278.77 2229.23 2288.18 2234.96 2287.44C2254.87 2284.86 2252.92 2248.35 2248.94 2234C2247.21 2227.76 2239.9 2221.17 2233 2222.68z" />
    <path style="fill:#649AFF; stroke:none;"
        d="M2312 2222.66C2296.08 2227.48 2300.43 2248.95 2300.96 2261C2301.16 2265.59 2300.35 2270.57 2301.85 2275C2304.22 2282 2311.38 2287.97 2319 2285.87C2335.9 2281.2 2335.65 2249.07 2331.08 2235C2328.57 2227.27 2320.72 2220.02 2312 2222.66z" />
    <path style="fill:#649AFF; stroke:none;"
        d="M2397 2285C2403.49 2289.5 2411.26 2282.07 2413.53 2276C2415.04 2271.96 2414.12 2268.17 2414.01 2264C2413.77 2254.01 2417.23 2237.46 2410.57 2229.09C2401.65 2217.9 2384.93 2223 2383.19 2237C2382.04 2246.14 2379.67 2268.13 2384.6 2276C2386.49 2279.01 2393.3 2288.19 2397 2285z" />
    <path style="fill:#649AFF; stroke:none;"
        d="M2477 2222.55C2458.94 2226.47 2462.04 2260.77 2465.52 2274C2467.27 2280.64 2473.52 2287.78 2481 2286.61C2500.16 2283.6 2499.93 2249.93 2495.08 2235C2492.63 2227.43 2485.51 2220.7 2477 2222.55z" />
    <path style="fill:#649AFF; stroke:none;" d="M2630 2229L2631 2230L2630 2229z" />
    <path style="fill:#649AFF; stroke:none;" d="M2536 2299L2537 2300L2536 2299z" />
    <path style="fill:#ffffff; stroke:none;"
        d="M2090.23 2386.91C2086.6 2388.18 2087.02 2392.92 2087 2396C2086.95 2405.33 2087 2414.67 2087 2424C2087 2466.2 2105.45 2499.33 2147 2514.06C2159.07 2518.34 2170.66 2516.15 2183 2516C2202.99 2515.77 2223 2516 2243 2516L2455 2516L2517 2516C2533.04 2516 2549.03 2516.85 2564 2509.49C2600.37 2491.61 2612 2457.08 2612 2419C2612 2413.04 2615.05 2390.54 2609.57 2387.27C2601.89 2382.69 2583.8 2387 2575 2387L2482 2387L2207 2387L2125 2387C2115.34 2387 2099.19 2383.77 2090.23 2386.91z" />
    <path style="fill:#649AFF; stroke:none;"
        d="M2344 2419.47C2314.9 2424.97 2307 2464.55 2333 2479.64C2339.85 2483.61 2349.29 2483.97 2357 2482.67C2397.11 2475.91 2383.08 2412.08 2344 2419.47z" />
    <path style="fill:#649AFF; stroke:none;"
        d="M1482 3160L1483 3160L1484 3158L1485 3161L1517 3163.99L1634 3164L1674 3163L1701 3162C1698.37 3147.85 1699.2 3131.22 1701 3117L1663 3116L1578 3116L1534 3115C1536.08 3106.28 1534.23 3097.77 1534.01 3089C1533.6 3072.17 1533.1 3054.77 1534.45 3038C1534.93 3031.91 1532.52 3019.18 1536.78 3014.51C1541.8 3009.03 1558.16 3012 1565 3012C1586.67 3012 1608.41 3012.57 1630 3011.09C1638.62 3010.5 1649.63 3012.26 1657.7 3008.53C1666.73 3004.35 1665.55 2985.38 1662 2978L1658 2976L1657 2976L1657 2979L1656 2979C1646.18 2964.14 1630.09 2964 1614 2964C1588.99 2964 1558.32 2968.79 1534 2963L1534.04 2938L1534.52 2893L1536.05 2871.28L1548 2868L1578 2868L1668 2867.09L1701 2866C1698.37 2851.85 1699.2 2835.22 1701 2821C1684.07 2816.97 1663.39 2820 1646 2820L1537 2820C1523.98 2820 1510.95 2819.6 1498 2820.83C1493.59 2821.25 1486.96 2819.81 1483.6 2823.51C1479.2 2828.38 1481 2840.91 1481 2847L1481 2910C1481 2993.33 1481.31 3076.75 1482 3160z" />
    <path style="fill:#649AFF; stroke:none;"
        d="M2122 3160L2123 3160L2124 3158C2129.56 3167.1 2145.31 3162.34 2153 3159C2154.26 3152.39 2164.85 3147.93 2171 3148C2178.29 3134.26 2174 3111.25 2174 3096L2174 2975C2174 2961.01 2173.55 2946.98 2173.88 2933C2174.02 2927.32 2172.88 2921.36 2177 2917C2191.18 2960.49 2212.27 3002.6 2229.55 3045C2244.6 3081.94 2256.47 3122.96 2275.67 3157.91C2278.79 3163.6 2283.36 3162.62 2289 3163.29C2300.56 3164.65 2312.34 3163 2324 3163C2327.53 3163 2337.61 3164.72 2339.88 3161.4C2342.65 3157.35 2340 3143.12 2340 3138L2340 3072L2340 2906C2340 2879.02 2336.07 2848.53 2341 2822C2330.22 2816.81 2312.84 2820 2301 2820C2297.58 2820 2290.48 2818.71 2288.03 2821.74C2285.34 2825.07 2287 2833.94 2287 2838L2287 2882C2287 2939.54 2284.54 2997.79 2287 3055C2280.07 3048.95 2276.44 3034.59 2273.3 3026C2266.93 3008.52 2259.47 2990.84 2251.64 2974C2248.72 2967.71 2246.76 2955.93 2241 2952C2241.1 2942.44 2234.33 2931.81 2230.91 2923C2222.06 2900.17 2211.17 2877.98 2202.8 2855C2199.6 2846.24 2195.26 2827.52 2187.73 2821.74C2183.96 2818.85 2177.45 2820 2173 2820C2160.93 2820 2149.02 2820.09 2137 2820.91C2132.37 2821.23 2124.93 2819.82 2122.6 2825.13C2118.83 2833.75 2121 2846.82 2121 2856L2121 2923C2121 3002 2121.35 3081.08 2122 3160z" />
    <path style="fill:#649AFF; stroke:none;"
        d="M2820 2822L2817 2829L2811 2831C2810.22 2837.16 2804.87 2841.63 2804.17 2849C2802.57 2865.83 2809.06 2888.06 2799.38 2902.95C2792.81 2913.06 2776.14 2913.84 2769.95 2925.83C2765.32 2934.81 2760.99 2954.04 2772 2960L2772 2961L2769 2961L2769 2962C2775.75 2967.71 2781.21 2968 2790 2968C2793.69 2968 2800.57 2966.72 2802.97 2970.32C2805.21 2973.67 2804 2980.16 2804 2984L2804 3017C2804 3059.92 2796.32 3114.47 2832.09 3146.59C2870.12 3180.73 2939.33 3180.93 2974 3141.42C2981.77 3132.57 2989.58 3120.95 2991.53 3109C2992.42 3103.54 2989.45 3098.42 2989 3093L2987 3094L2987 3088L2950 3079C2946.49 3093.82 2938.83 3109.48 2926 3118.35C2907.08 3131.43 2874.63 3123.56 2863.53 3104C2855.49 3089.83 2857 3072.69 2857 3057C2857 3029.73 2852.94 2998.93 2857.15 2972.02C2858.5 2963.37 2871.1 2967.93 2877 2968C2897.74 2968.24 2918.38 2968.13 2939 2966.17C2943.63 2965.73 2959.54 2968.62 2961.19 2962.77C2963.56 2954.35 2959.95 2940.88 2960.13 2932C2960.2 2928.7 2962.15 2924.35 2958.68 2922.03C2954.13 2918.98 2944.27 2921.23 2939 2921.08C2921.66 2920.59 2904.4 2920 2887 2920C2880.74 2920 2863.22 2923.02 2858.6 2918.4C2854.2 2913.99 2857 2897.93 2857 2892L2857 2840C2857 2835.8 2859.34 2824.68 2856.38 2821.6C2854.19 2819.33 2849.84 2820 2847 2820C2838.12 2820 2828.67 2819.94 2820 2822z" />
    <path style="fill:#649AFF; stroke:none;"
        d="M2626 2935C2620.55 2925.06 2601.28 2920.47 2591 2917.58C2553.54 2907.06 2509.87 2911.6 2477 2933.1C2411.33 2976.07 2403.93 3083.87 2460.17 3137.79C2485.68 3162.25 2520.68 3171 2555 3171C2585.25 3171 2615.99 3161.06 2639 3140.82C2683.76 3101.43 2687.94 3035.13 2666.76 2983C2660.84 2968.45 2652.3 2957.2 2641.35 2946C2637.13 2941.69 2632.24 2935.57 2626 2935z" />
    <path style="fill:#649AFF; stroke:none;"
        d="M3136 3157C3141.1 3164.48 3158.53 3167 3167 3168.79C3199.32 3175.62 3240.64 3172.08 3270 3156.31C3278.82 3151.57 3287.27 3146.7 3295 3140.25C3297.48 3138.18 3301.59 3135.53 3301.97 3132C3302.38 3128.14 3297.74 3123.84 3295.63 3121C3289.32 3112.49 3282.97 3103.75 3277 3095C3265.09 3100.67 3255.27 3110.07 3243 3115.69C3215.49 3128.29 3179.33 3128.3 3153 3113.42C3138.09 3105 3127.99 3092.24 3122.34 3076C3121.28 3072.95 3116.79 3064.97 3118.96 3062.03C3121.15 3059.07 3126.84 3060 3130 3060L3162 3060L3258 3060C3269.51 3060 3281.63 3058.22 3293 3059L3311 3041L3311 3038C3322.56 3038.52 3320.51 3024.46 3319 3017C3314.71 2995.91 3305.6 2976.59 3293.29 2959C3260.66 2912.36 3192.56 2902.68 3142 2921.05C3074 2945.77 3048.68 3024.38 3071.3 3089C3079.36 3112.01 3094.61 3133.22 3115 3146.87C3120.88 3150.81 3128.7 3157.32 3136 3157z" />
    <path style="fill:#ffffff; stroke:none;"
        d="M2547 2960.42C2531.13 2962.53 2515.41 2966.06 2503.17 2977.33C2450.22 3026.08 2481.88 3133.99 2561 3123.71C2610.09 3117.33 2632.64 3065.72 2623.49 3021C2616.45 2986.62 2583.99 2955.51 2547 2960.42z" />
    <path style="fill:#ffffff; stroke:none;"
        d="M3186 2960.43C3164.51 2963.32 3145 2970.27 3131.12 2988C3128.39 2991.49 3118.92 3005.72 3123.78 3009.97C3128.54 3014.13 3146.77 3011 3153 3011C3180.6 3011 3211.77 3015.1 3239 3010.79C3254.19 3008.38 3253.43 2988.49 3244.49 2980.29C3229.65 2966.71 3206.26 2957.7 3186 2960.43z" />
</svg>
